<?xml version="1.0" encoding="UTF-8" standalone="no"?>
<!-- Created with Inkscape (http://www.inkscape.org/) -->

<svg
   xmlns:osb="http://www.openswatchbook.org/uri/2009/osb"
   xmlns:dc="http://purl.org/dc/elements/1.1/"
   xmlns:cc="http://creativecommons.org/ns#"
   xmlns:rdf="http://www.w3.org/1999/02/22-rdf-syntax-ns#"
   xmlns:svg="http://www.w3.org/2000/svg"
   xmlns="http://www.w3.org/2000/svg"
   xmlns:sodipodi="http://sodipodi.sourceforge.net/DTD/sodipodi-0.dtd"
   xmlns:inkscape="http://www.inkscape.org/namespaces/inkscape"
   width="157.02505mm"
   height="87.019768mm"
   viewBox="0 0 556.38799 308.33776"
   id="svg5356"
   version="1.1"
   inkscape:version="0.91 r13725"
   sodipodi:docname="iaqse-caib-w.svg">
  <defs
     id="defs5358">
    <linearGradient
       id="linearGradient9138"
       osb:paint="solid">
      <stop
         style="stop-color:#0000ff;stop-opacity:1;"
         offset="0"
         id="stop9140" />
    </linearGradient>
    <clipPath
       id="clipPath5397"
       clipPathUnits="userSpaceOnUse">
      <path
         inkscape:connector-curvature="0"
         id="path5399"
         d="m 0,612.288 858.897,0 L 858.897,0 0,0 0,612.288 Z" />
    </clipPath>
    <clipPath
       id="clipPath5405"
       clipPathUnits="userSpaceOnUse">
      <path
         inkscape:connector-curvature="0"
         id="path5407"
         d="m 20.5796,419.302 6.2924,0 0,-396.5588 -6.2924,0 0,396.5588 z" />
    </clipPath>
  </defs>
  <sodipodi:namedview
     id="base"
     pagecolor="#ffffff"
     bordercolor="#666666"
     borderopacity="1.0"
     inkscape:pageopacity="0.0"
     inkscape:pageshadow="2"
     inkscape:zoom="2.8"
     inkscape:cx="288.86698"
     inkscape:cy="61.618206"
     inkscape:document-units="px"
     inkscape:current-layer="layer1"
     showgrid="false"
     fit-margin-top="0"
     fit-margin-left="0"
     fit-margin-right="0"
     fit-margin-bottom="0"
     inkscape:window-width="2560"
     inkscape:window-height="1309"
     inkscape:window-x="0"
     inkscape:window-y="1"
     inkscape:window-maximized="1" />
  <metadata
     id="metadata5361">
    <rdf:RDF>
      <cc:Work
         rdf:about="">
        <dc:format>image/svg+xml</dc:format>
        <dc:type
           rdf:resource="http://purl.org/dc/dcmitype/StillImage" />
        <dc:title></dc:title>
      </cc:Work>
    </rdf:RDF>
  </metadata>
  <g
     inkscape:label="Capa 1"
     inkscape:groupmode="layer"
     id="layer1"
     transform="translate(-26.002021,-15.36609)">
    <g
       id="g6001"
       transform="matrix(1.25,0,0,-1.25,92.891151,135.00534)"
       style="fill:#000000">
      <path
         d="m 0,0 c 0,7.721 3.844,11.435 10.164,11.435 3.095,0 5.799,-1.336 7.33,-3.454 0.163,-0.228 0.228,-0.456 0.228,-0.684 0,-0.586 -0.456,-1.042 -1.042,-1.042 -0.293,0 -0.587,0.098 -0.848,0.423 C 14.725,8.209 12.607,9.415 10.164,9.415 5.147,9.415 2.28,6.385 2.28,0 c 0,-6.776 2.867,-9.382 7.884,-9.382 2.15,0 4.398,0.846 5.668,2.671 0.229,0.326 0.587,0.423 0.848,0.423 0.586,0 1.042,-0.456 1.042,-1.042 0,-0.261 -0.065,-0.423 -0.196,-0.619 -1.433,-2.085 -4.365,-3.453 -7.362,-3.453 C 3.844,-11.402 0,-8.014 0,0"
         style="fill:#000000;fill-opacity:1;fill-rule:nonzero;stroke:none"
         id="path6003"
         inkscape:connector-curvature="0" />
    </g>
    <g
       id="g6005"
       transform="matrix(1.25,0,0,-1.25,120.82815,135.00534)"
       style="fill:#000000">
      <path
         d="m 0,0 c 0,-6.353 2.899,-9.382 7.884,-9.382 4.984,0 7.884,3.029 7.884,9.382 0,6.385 -2.9,9.415 -7.884,9.415 C 2.899,9.415 0,6.385 0,0 m -2.28,0 c 0,7.721 3.843,11.435 10.164,11.435 6.32,0 10.164,-3.714 10.164,-11.435 0,-7.656 -3.844,-11.402 -10.164,-11.402 C 1.563,-11.402 -2.28,-7.656 -2.28,0"
         style="fill:#000000;fill-opacity:1;fill-rule:nonzero;stroke:none"
         id="path6007"
         inkscape:connector-curvature="0" />
    </g>
    <g
       id="g6009"
       transform="matrix(1.25,0,0,-1.25,166.96702,122.30021)"
       style="fill:#000000">
      <path
         d="m 0,0 0,-20.263 c 0,-0.619 -0.489,-1.108 -1.108,-1.108 -0.391,0 -0.684,0.163 -0.913,0.456 l -11.466,17.299 0,-16.68 c 0,-0.586 -0.49,-1.075 -1.076,-1.075 -0.585,0 -1.075,0.489 -1.075,1.075 l 0,20.296 c 0,0.586 0.49,1.075 1.075,1.075 0.391,0 0.717,-0.228 0.88,-0.456 L -2.15,-16.712 -2.15,0 c 0,0.586 0.488,1.075 1.075,1.075 C -0.489,1.075 0,0.586 0,0"
         style="fill:#000000;fill-opacity:1;fill-rule:nonzero;stroke:none"
         id="path6011"
         inkscape:connector-curvature="0" />
    </g>
    <g
       id="g6013"
       transform="matrix(1.25,0,0,-1.25,180.65115,123.23659)"
       style="fill:#000000">
      <path
         d="m 0,0 c -3.421,0 -4.724,-1.694 -4.724,-3.551 0,-5.408 12.315,-3.095 12.315,-10.946 0,-4.072 -2.802,-6.32 -7.82,-6.32 -3.712,0 -6.482,1.889 -7.589,4.007 -0.131,0.26 -0.163,0.391 -0.163,0.586 0,0.586 0.456,1.042 1.042,1.042 0.391,0 0.716,-0.195 0.912,-0.521 1.043,-1.693 2.932,-3.094 5.798,-3.094 3.584,0 5.604,1.433 5.604,4.3 0,6.092 -12.314,3.225 -12.314,10.946 0,2.997 2.183,5.571 6.939,5.571 3.095,0 5.604,-1.304 6.972,-3.356 0.13,-0.195 0.195,-0.391 0.195,-0.619 0,-0.587 -0.456,-1.043 -1.042,-1.043 -0.294,0 -0.587,0.099 -0.848,0.424 C 4.3,-1.369 2.736,0 0,0"
         style="fill:#000000;fill-opacity:1;fill-rule:nonzero;stroke:none"
         id="path6015"
         inkscape:connector-curvature="0" />
    </g>
    <g
       id="g6017"
       transform="matrix(1.25,0,0,-1.25,195.96365,148.68821)"
       style="fill:#000000">
      <path
         d="m 0,0 c -0.619,0 -1.107,0.489 -1.107,1.108 l 0,19.709 c 0,0.619 0.488,1.108 1.107,1.108 l 10.457,0 c 0.554,0 1.01,-0.456 1.01,-1.01 0,-0.554 -0.456,-1.01 -1.01,-1.01 l -9.35,0 0,-7.851 7.167,0 c 0.554,0 1.01,-0.456 1.01,-1.01 0,-0.554 -0.456,-1.01 -1.01,-1.01 l -7.167,0 0,-8.014 9.708,0 c 0.554,0 1.01,-0.456 1.01,-1.01 C 11.825,0.456 11.369,0 10.815,0 L 0,0 Z"
         style="fill:#000000;fill-opacity:1;fill-rule:nonzero;stroke:none"
         id="path6019"
         inkscape:connector-curvature="0" />
    </g>
    <g
       id="g6021"
       transform="matrix(1.25,0,0,-1.25,228.9909,146.08196)"
       style="fill:#000000">
      <path
         d="M 0,0 C 0.586,0 1.042,-0.456 1.042,-1.042 1.042,-1.629 0.586,-2.085 0,-2.085 l -10.034,0 c -0.619,0 -1.108,0.489 -1.108,1.108 l 0,19.97 c 0,0.619 0.489,1.108 1.108,1.108 0.619,0 1.107,-0.489 1.107,-1.108 L -8.927,0 0,0 Z"
         style="fill:#000000;fill-opacity:1;fill-rule:nonzero;stroke:none"
         id="path6023"
         inkscape:connector-curvature="0" />
    </g>
    <g
       id="g6025"
       transform="matrix(1.25,0,0,-1.25,248.04852,146.08196)"
       style="fill:#000000">
      <path
         d="M 0,0 C 0.586,0 1.042,-0.456 1.042,-1.042 1.042,-1.629 0.586,-2.085 0,-2.085 l -10.034,0 c -0.619,0 -1.108,0.489 -1.108,1.108 l 0,19.97 c 0,0.619 0.489,1.108 1.108,1.108 0.619,0 1.107,-0.489 1.107,-1.108 L -8.927,0 0,0 Z"
         style="fill:#000000;fill-opacity:1;fill-rule:nonzero;stroke:none"
         id="path6027"
         inkscape:connector-curvature="0" />
    </g>
    <g
       id="g6029"
       transform="matrix(1.25,0,0,-1.25,254.56465,148.68821)"
       style="fill:#000000">
      <path
         d="m 0,0 c -0.619,0 -1.107,0.489 -1.107,1.108 l 0,19.709 c 0,0.619 0.488,1.108 1.107,1.108 l 10.457,0 c 0.554,0 1.01,-0.456 1.01,-1.01 0,-0.554 -0.456,-1.01 -1.01,-1.01 l -9.35,0 0,-7.851 7.167,0 c 0.554,0 1.01,-0.456 1.01,-1.01 0,-0.554 -0.456,-1.01 -1.01,-1.01 l -7.167,0 0,-8.014 9.708,0 c 0.554,0 1.01,-0.456 1.01,-1.01 C 11.825,0.456 11.369,0 10.815,0 L 0,0 Z"
         style="fill:#000000;fill-opacity:1;fill-rule:nonzero;stroke:none"
         id="path6031"
         inkscape:connector-curvature="0" />
    </g>
    <g
       id="g6033"
       transform="matrix(1.25,0,0,-1.25,276.43352,134.31321)"
       style="fill:#000000">
      <path
         d="m 0,0 5.44,0 c 2.281,0 3.91,1.857 3.91,4.203 0,2.41 -1.662,4.202 -4.007,4.202 L 0,8.405 0,0 Z m 0,-10.653 c 0,-0.619 -0.488,-1.108 -1.107,-1.108 -0.62,0 -1.108,0.489 -1.108,1.108 l 0,19.97 c 0,0.619 0.488,1.108 1.108,1.108 l 6.482,0 c 3.616,0 6.223,-2.737 6.223,-6.222 0,-3.356 -2.313,-6.06 -5.831,-6.223 l 5.962,-7.949 c 0.162,-0.195 0.227,-0.456 0.227,-0.684 0,-0.619 -0.488,-1.108 -1.107,-1.108 -0.327,0 -0.685,0.131 -0.946,0.522 L 3.29,-2.02 0,-2.02 0,-10.653 Z"
         style="fill:#000000;fill-opacity:1;fill-rule:nonzero;stroke:none"
         id="path6035"
         inkscape:connector-curvature="0" />
    </g>
    <g
       id="g6037"
       transform="matrix(1.25,0,0,-1.25,298.05715,147.62921)"
       style="fill:#000000">
      <path
         d="m 0,0 c 0,-0.586 -0.488,-1.108 -1.107,-1.108 -0.62,0 -1.108,0.522 -1.108,1.108 l 0,20.23 c 0,0.587 0.488,1.108 1.108,1.108 C -0.488,21.338 0,20.817 0,20.23 L 0,0 Z"
         style="fill:#000000;fill-opacity:1;fill-rule:nonzero;stroke:none"
         id="path6039"
         inkscape:connector-curvature="0" />
    </g>
    <g
       id="g6041"
       transform="matrix(1.25,0,0,-1.25,313.16577,125.59859)"
       style="fill:#000000">
      <path
         d="m 0,0 -3.844,-9.969 7.721,0 L 0,0 Z m -4.528,-11.989 -2.378,-5.961 c -0.163,-0.424 -0.522,-0.782 -1.075,-0.782 -0.62,0 -1.108,0.521 -1.108,1.107 0,0.131 0.032,0.359 0.098,0.489 l 7.948,20.1 c 0.163,0.391 0.457,0.75 1.043,0.75 0.554,0 0.912,-0.359 1.075,-0.75 l 7.949,-20.1 c 0.065,-0.163 0.098,-0.391 0.098,-0.489 0,-0.586 -0.456,-1.107 -1.141,-1.107 -0.553,0 -0.912,0.326 -1.075,0.749 l -2.345,5.994 -9.089,0 z"
         style="fill:#000000;fill-opacity:1;fill-rule:nonzero;stroke:none"
         id="path6043"
         inkscape:connector-curvature="0" />
    </g>
    <g
       id="g6045"
       transform="matrix(1.25,0,0,-1.25,95.741401,191.97184)"
       style="fill:#000000">
      <path
         d="m 0,0 c -0.619,0 -1.107,0.488 -1.107,1.107 l 0,19.709 c 0,0.62 0.488,1.108 1.107,1.108 l 10.457,0 c 0.554,0 1.01,-0.456 1.01,-1.009 0,-0.555 -0.456,-1.011 -1.01,-1.011 l -9.35,0 0,-7.85 7.167,0 c 0.554,0 1.01,-0.456 1.01,-1.011 0,-0.554 -0.456,-1.01 -1.01,-1.01 l -7.167,0 0,-8.013 9.708,0 c 0.554,0 1.01,-0.457 1.01,-1.01 C 11.825,0.456 11.369,0 10.815,0 L 0,0 Z"
         style="fill:#000000;fill-opacity:1;fill-rule:nonzero;stroke:none"
         id="path6047"
         inkscape:connector-curvature="0" />
    </g>
    <g
       id="g6049"
       transform="matrix(1.25,0,0,-1.25,117.20265,189.44746)"
       style="fill:#000000">
      <path
         d="m 0,0 3.486,0 c 4.854,0 7.819,2.15 7.819,8.926 0,6.711 -2.965,8.959 -7.819,8.959 L 0,17.885 0,0 Z m 3.486,19.905 c 6.222,0 10.067,-2.932 10.067,-10.979 C 13.553,0.88 9.708,-2.02 3.486,-2.02 l -4.593,0 c -0.62,0 -1.108,0.489 -1.108,1.108 l 0,19.709 c 0,0.619 0.488,1.108 1.108,1.108 l 4.593,0 z"
         style="fill:#000000;fill-opacity:1;fill-rule:nonzero;stroke:none"
         id="path6051"
         inkscape:connector-curvature="0" />
    </g>
    <g
       id="g6053"
       transform="matrix(1.25,0,0,-1.25,138.17677,183.62471)"
       style="fill:#000000">
      <path
         d="m 0,0 0,14.399 c 0,0.62 0.488,1.108 1.107,1.108 0.62,0 1.108,-0.488 1.108,-1.108 L 2.215,0 c 0,-2.573 0.945,-5.049 5.44,-5.049 4.463,0 5.408,2.476 5.408,5.049 l 0,14.399 c 0,0.62 0.489,1.108 1.108,1.108 0.619,0 1.107,-0.488 1.107,-1.108 L 15.278,0 c 0,-3.583 -1.465,-7.134 -7.623,-7.134 C 1.498,-7.134 0,-3.583 0,0"
         style="fill:#000000;fill-opacity:1;fill-rule:nonzero;stroke:none"
         id="path6055"
         inkscape:connector-curvature="0" />
    </g>
    <g
       id="g6057"
       transform="matrix(1.25,0,0,-1.25,161.10515,178.29021)"
       style="fill:#000000">
      <path
         d="m 0,0 c 0,7.721 3.844,11.435 10.164,11.435 3.095,0 5.799,-1.335 7.33,-3.453 0.163,-0.228 0.228,-0.456 0.228,-0.684 0,-0.587 -0.456,-1.043 -1.042,-1.043 -0.293,0 -0.587,0.098 -0.848,0.424 C 14.725,8.21 12.607,9.415 10.164,9.415 5.147,9.415 2.28,6.386 2.28,0 c 0,-6.775 2.867,-9.382 7.884,-9.382 2.15,0 4.398,0.847 5.668,2.671 0.229,0.326 0.587,0.424 0.848,0.424 0.586,0 1.042,-0.456 1.042,-1.043 0,-0.26 -0.065,-0.423 -0.196,-0.618 -1.433,-2.085 -4.365,-3.453 -7.362,-3.453 C 3.844,-11.401 0,-8.014 0,0"
         style="fill:#000000;fill-opacity:1;fill-rule:nonzero;stroke:none"
         id="path6059"
         inkscape:connector-curvature="0" />
    </g>
    <g
       id="g6061"
       transform="matrix(1.25,0,0,-1.25,196.25052,168.88284)"
       style="fill:#000000">
      <path
         d="m 0,0 -3.844,-9.969 7.721,0 L 0,0 Z m -4.528,-11.989 -2.378,-5.962 c -0.163,-0.423 -0.522,-0.781 -1.075,-0.781 -0.62,0 -1.108,0.521 -1.108,1.107 0,0.13 0.032,0.359 0.098,0.489 l 7.948,20.1 c 0.163,0.391 0.456,0.75 1.043,0.75 0.554,0 0.912,-0.359 1.075,-0.75 l 7.949,-20.1 c 0.065,-0.162 0.098,-0.391 0.098,-0.489 0,-0.586 -0.456,-1.107 -1.141,-1.107 -0.553,0 -0.912,0.325 -1.075,0.749 l -2.345,5.994 -9.089,0 z"
         style="fill:#000000;fill-opacity:1;fill-rule:nonzero;stroke:none"
         id="path6063"
         inkscape:connector-curvature="0" />
    </g>
    <g
       id="g6065"
       transform="matrix(1.25,0,0,-1.25,208.30615,178.29021)"
       style="fill:#000000">
      <path
         d="m 0,0 c 0,7.721 3.844,11.435 10.164,11.435 3.095,0 5.799,-1.335 7.33,-3.453 0.163,-0.228 0.228,-0.456 0.228,-0.684 0,-0.587 -0.456,-1.043 -1.042,-1.043 -0.293,0 -0.587,0.098 -0.848,0.424 C 14.725,8.21 12.607,9.415 10.164,9.415 5.147,9.415 2.28,6.386 2.28,0 c 0,-6.775 2.867,-9.382 7.884,-9.382 2.15,0 4.398,0.847 5.668,2.671 0.229,0.326 0.587,0.424 0.848,0.424 0.586,0 1.042,-0.456 1.042,-1.043 0,-0.26 -0.065,-0.423 -0.196,-0.618 -1.433,-2.085 -4.365,-3.453 -7.362,-3.453 C 3.844,-11.401 0,-8.014 0,0"
         style="fill:#000000;fill-opacity:1;fill-rule:nonzero;stroke:none"
         id="path6067"
         inkscape:connector-curvature="0" />
    </g>
    <g
       id="g6069"
       transform="matrix(1.25,0,0,-1.25,237.21965,190.91359)"
       style="fill:#000000">
      <path
         d="m 0,0 c 0,-0.587 -0.488,-1.107 -1.107,-1.107 -0.62,0 -1.108,0.52 -1.108,1.107 l 0,20.23 c 0,0.587 0.488,1.108 1.108,1.108 C -0.488,21.338 0,20.817 0,20.23 L 0,0 Z"
         style="fill:#000000;fill-opacity:1;fill-rule:nonzero;stroke:none"
         id="path6071"
         inkscape:connector-curvature="0" />
    </g>
    <g
       id="g6073"
       transform="matrix(1.25,0,0,-1.25,251.71677,162.48946)"
       style="fill:#000000">
      <path
         d="m 0,0 c 0.391,-0.326 0.685,-0.229 0.978,0.065 l 3.16,3.192 C 4.496,3.616 4.528,4.04 4.04,4.496 3.519,4.952 3.063,4.821 2.802,4.496 l -2.9,-3.519 C -0.325,0.684 -0.391,0.326 0,0 m 1.792,-3.226 c -4.984,0 -7.884,-3.029 -7.884,-9.415 0,-6.352 2.9,-9.381 7.884,-9.381 4.984,0 7.884,3.029 7.884,9.381 0,6.386 -2.9,9.415 -7.884,9.415 m 0,-20.816 c -6.32,0 -10.164,3.746 -10.164,11.401 0,7.722 3.844,11.435 10.164,11.435 6.32,0 10.164,-3.713 10.164,-11.435 0,-7.655 -3.844,-11.401 -10.164,-11.401"
         style="fill:#000000;fill-opacity:1;fill-rule:nonzero;stroke:none"
         id="path6075"
         inkscape:connector-curvature="0" />
    </g>
    <g
       id="g6077"
       transform="matrix(1.25,0,0,-1.25,266.49952,198.32446)"
       style="fill:#000000">
      <path
         d="m 0,0 c -0.098,-0.099 -0.195,-0.196 -0.423,-0.196 -0.261,0 -0.489,0.196 -0.489,0.489 0,0.098 0.033,0.195 0.099,0.293 0.781,1.075 1.205,1.824 1.205,2.965 0,1.237 -1.173,1.466 -1.173,2.802 0,1.074 0.586,1.563 1.531,1.563 1.01,0 1.596,-0.587 1.596,-2.085 C 2.346,3.583 1.434,1.498 0,0"
         style="fill:#000000;fill-opacity:1;fill-rule:nonzero;stroke:none"
         id="path6079"
         inkscape:connector-curvature="0" />
    </g>
    <g
       id="g6081"
       transform="matrix(1.25,0,0,-1.25,280.06152,183.62471)"
       style="fill:#000000">
      <path
         d="m 0,0 0,14.399 c 0,0.62 0.488,1.108 1.107,1.108 0.62,0 1.108,-0.488 1.108,-1.108 L 2.215,0 c 0,-2.573 0.945,-5.049 5.44,-5.049 4.463,0 5.408,2.476 5.408,5.049 l 0,14.399 c 0,0.62 0.489,1.108 1.108,1.108 0.619,0 1.107,-0.488 1.107,-1.108 L 15.278,0 c 0,-3.583 -1.465,-7.134 -7.623,-7.134 C 1.498,-7.134 0,-3.583 0,0"
         style="fill:#000000;fill-opacity:1;fill-rule:nonzero;stroke:none"
         id="path6083"
         inkscape:connector-curvature="0" />
    </g>
    <g
       id="g6085"
       transform="matrix(1.25,0,0,-1.25,323.59427,165.58459)"
       style="fill:#000000">
      <path
         d="m 0,0 0,-20.263 c 0,-0.619 -0.489,-1.108 -1.108,-1.108 -0.391,0 -0.684,0.163 -0.913,0.456 l -11.466,17.299 0,-16.679 c 0,-0.587 -0.49,-1.076 -1.076,-1.076 -0.585,0 -1.075,0.489 -1.075,1.076 l 0,20.295 c 0,0.586 0.49,1.075 1.075,1.075 0.391,0 0.717,-0.228 0.88,-0.456 L -2.15,-16.712 -2.15,0 c 0,0.586 0.488,1.075 1.075,1.075 C -0.489,1.075 0,0.586 0,0"
         style="fill:#000000;fill-opacity:1;fill-rule:nonzero;stroke:none"
         id="path6087"
         inkscape:connector-curvature="0" />
    </g>
    <g
       id="g6089"
       transform="matrix(1.25,0,0,-1.25,331.45427,190.91359)"
       style="fill:#000000">
      <path
         d="m 0,0 c 0,-0.587 -0.488,-1.107 -1.107,-1.107 -0.62,0 -1.108,0.52 -1.108,1.107 l 0,20.23 c 0,0.587 0.488,1.108 1.108,1.108 C -0.488,21.338 0,20.817 0,20.23 L 0,0 Z"
         style="fill:#000000;fill-opacity:1;fill-rule:nonzero;stroke:none"
         id="path6091"
         inkscape:connector-curvature="0" />
    </g>
    <g
       id="g6093"
       transform="matrix(1.25,0,0,-1.25,353.68827,165.13659)"
       style="fill:#000000">
      <path
         d="m 0,0 c 0.099,0.261 0.424,0.717 1.043,0.717 0.619,0 1.107,-0.489 1.107,-1.108 0,-0.195 -0.065,-0.391 -0.097,-0.489 l -7.623,-20.1 c -0.163,-0.456 -0.619,-0.749 -1.043,-0.749 -0.423,0 -0.879,0.293 -1.042,0.749 l -7.623,20.1 c -0.033,0.098 -0.098,0.294 -0.098,0.489 0,0.619 0.488,1.108 1.107,1.108 0.62,0 0.945,-0.456 1.043,-0.717 L -6.613,-17.527 0,0 Z"
         style="fill:#000000;fill-opacity:1;fill-rule:nonzero;stroke:none"
         id="path6095"
         inkscape:connector-curvature="0" />
    </g>
    <g
       id="g6097"
       transform="matrix(1.25,0,0,-1.25,360.77565,191.97184)"
       style="fill:#000000">
      <path
         d="m 0,0 c -0.619,0 -1.107,0.488 -1.107,1.107 l 0,19.709 c 0,0.62 0.488,1.108 1.107,1.108 l 10.457,0 c 0.554,0 1.01,-0.456 1.01,-1.009 0,-0.555 -0.456,-1.011 -1.01,-1.011 l -9.35,0 0,-7.85 7.167,0 c 0.554,0 1.01,-0.456 1.01,-1.011 0,-0.554 -0.456,-1.01 -1.01,-1.01 l -7.167,0 0,-8.013 9.708,0 c 0.554,0 1.01,-0.457 1.01,-1.01 C 11.825,0.456 11.369,0 10.815,0 L 0,0 Z"
         style="fill:#000000;fill-opacity:1;fill-rule:nonzero;stroke:none"
         id="path6099"
         inkscape:connector-curvature="0" />
    </g>
    <g
       id="g6101"
       transform="matrix(1.25,0,0,-1.25,382.23677,177.59809)"
       style="fill:#000000">
      <path
         d="m 0,0 5.44,0 c 2.281,0 3.91,1.857 3.91,4.203 0,2.411 -1.662,4.202 -4.007,4.202 L 0,8.405 0,0 Z m 0,-10.652 c 0,-0.619 -0.488,-1.108 -1.107,-1.108 -0.62,0 -1.108,0.489 -1.108,1.108 l 0,19.969 c 0,0.62 0.488,1.108 1.108,1.108 l 6.482,0 c 3.616,0 6.223,-2.737 6.223,-6.222 0,-3.355 -2.313,-6.059 -5.831,-6.223 l 5.962,-7.948 c 0.162,-0.196 0.227,-0.457 0.227,-0.684 0,-0.619 -0.488,-1.108 -1.107,-1.108 -0.327,0 -0.685,0.13 -0.946,0.521 L 3.29,-2.02 0,-2.02 0,-10.652 Z"
         style="fill:#000000;fill-opacity:1;fill-rule:nonzero;stroke:none"
         id="path6103"
         inkscape:connector-curvature="0" />
    </g>
    <g
       id="g6105"
       transform="matrix(1.25,0,0,-1.25,408.87015,166.52146)"
       style="fill:#000000">
      <path
         d="m 0,0 c -3.421,0 -4.724,-1.694 -4.724,-3.551 0,-5.408 12.315,-3.095 12.315,-10.946 0,-4.072 -2.802,-6.319 -7.82,-6.319 -3.713,0 -6.482,1.888 -7.589,4.006 -0.131,0.261 -0.163,0.391 -0.163,0.586 0,0.587 0.456,1.043 1.042,1.043 0.391,0 0.716,-0.195 0.913,-0.521 1.042,-1.694 2.931,-3.095 5.797,-3.095 3.584,0 5.604,1.434 5.604,4.3 0,6.092 -12.314,3.226 -12.314,10.946 0,2.997 2.183,5.571 6.939,5.571 3.095,0 5.604,-1.303 6.972,-3.355 0.13,-0.196 0.195,-0.392 0.195,-0.62 0,-0.586 -0.456,-1.042 -1.042,-1.042 -0.294,0 -0.587,0.098 -0.848,0.424 C 4.3,-1.368 2.736,0 0,0"
         style="fill:#000000;fill-opacity:1;fill-rule:nonzero;stroke:none"
         id="path6107"
         inkscape:connector-curvature="0" />
    </g>
    <g
       id="g6109"
       transform="matrix(1.25,0,0,-1.25,425.1604,190.91359)"
       style="fill:#000000">
      <path
         d="m 0,0 c 0,-0.587 -0.488,-1.107 -1.107,-1.107 -0.62,0 -1.108,0.52 -1.108,1.107 l 0,20.23 c 0,0.587 0.488,1.108 1.108,1.108 C -0.488,21.338 0,20.817 0,20.23 L 0,0 Z"
         style="fill:#000000;fill-opacity:1;fill-rule:nonzero;stroke:none"
         id="path6111"
         inkscape:connector-curvature="0" />
    </g>
    <g
       id="g6113"
       transform="matrix(1.25,0,0,-1.25,429.68065,167.17271)"
       style="fill:#000000">
      <path
         d="m 0,0 c -0.586,0 -1.042,0.456 -1.042,1.042 0,0.587 0.456,1.043 1.042,1.043 l 13.846,0 c 0.586,0 1.042,-0.456 1.042,-1.043 C 14.888,0.456 14.432,0 13.846,0 l -5.799,0 0,-18.993 c 0,-0.619 -0.489,-1.107 -1.108,-1.107 -0.619,0 -1.108,0.488 -1.108,1.107 L 5.831,0 0,0 Z"
         style="fill:#000000;fill-opacity:1;fill-rule:nonzero;stroke:none"
         id="path6115"
         inkscape:connector-curvature="0" />
    </g>
    <g
       id="g6117"
       transform="matrix(1.25,0,0,-1.25,456.6814,168.88284)"
       style="fill:#000000">
      <path
         d="m 0,0 -3.844,-9.969 7.721,0 L 0,0 Z m -4.528,-11.989 -2.378,-5.962 c -0.163,-0.423 -0.522,-0.781 -1.075,-0.781 -0.62,0 -1.108,0.521 -1.108,1.107 0,0.13 0.032,0.359 0.098,0.489 l 7.948,20.1 c 0.163,0.391 0.457,0.75 1.043,0.75 0.554,0 0.912,-0.359 1.075,-0.75 l 7.949,-20.1 c 0.065,-0.162 0.098,-0.391 0.098,-0.489 0,-0.586 -0.456,-1.107 -1.141,-1.107 -0.553,0 -0.912,0.325 -1.075,0.749 l -2.345,5.994 -9.089,0 z"
         style="fill:#000000;fill-opacity:1;fill-rule:nonzero;stroke:none"
         id="path6119"
         inkscape:connector-curvature="0" />
    </g>
    <g
       id="g6121"
       transform="matrix(1.25,0,0,-1.25,466.37502,167.17271)"
       style="fill:#000000">
      <path
         d="m 0,0 c -0.586,0 -1.042,0.456 -1.042,1.042 0,0.587 0.456,1.043 1.042,1.043 l 13.846,0 c 0.586,0 1.042,-0.456 1.042,-1.043 C 14.888,0.456 14.432,0 13.846,0 l -5.799,0 0,-18.993 c 0,-0.619 -0.489,-1.107 -1.108,-1.107 -0.619,0 -1.108,0.488 -1.108,1.107 L 5.831,0 0,0 Z"
         style="fill:#000000;fill-opacity:1;fill-rule:nonzero;stroke:none"
         id="path6123"
         inkscape:connector-curvature="0" />
    </g>
    <g
       id="g6125"
       transform="matrix(1.25,0,0,-1.25,97.125771,234.19846)"
       style="fill:#000000">
      <path
         d="m 0,0 c 0,-0.586 -0.488,-1.107 -1.107,-1.107 -0.62,0 -1.108,0.521 -1.108,1.107 l 0,20.231 c 0,0.586 0.488,1.108 1.108,1.108 C -0.488,21.339 0,20.817 0,20.231 L 0,0 Z"
         style="fill:#000000;fill-opacity:1;fill-rule:nonzero;stroke:none"
         id="path6127"
         inkscape:connector-curvature="0" />
    </g>
    <g
       id="g6129"
       transform="matrix(1.25,0,0,-1.25,114.8809,220.88184)"
       style="fill:#000000">
      <path
         d="m 0,0 5.44,0 c 2.281,0 3.91,1.856 3.91,4.202 0,2.411 -1.662,4.203 -4.007,4.203 L 0,8.405 0,0 Z m 0,-10.653 c 0,-0.618 -0.488,-1.108 -1.107,-1.108 -0.62,0 -1.108,0.49 -1.108,1.108 l 0,19.97 c 0,0.62 0.488,1.108 1.108,1.108 l 6.482,0 c 3.616,0 6.223,-2.737 6.223,-6.223 0,-3.355 -2.313,-6.059 -5.831,-6.222 l 5.962,-7.949 c 0.162,-0.195 0.227,-0.456 0.227,-0.684 0,-0.618 -0.488,-1.108 -1.107,-1.108 -0.327,0 -0.685,0.131 -0.946,0.522 L 3.29,-2.02 0,-2.02 0,-10.653 Z"
         style="fill:#000000;fill-opacity:1;fill-rule:nonzero;stroke:none"
         id="path6131"
         inkscape:connector-curvature="0" />
    </g>
    <g
       id="g6133"
       transform="matrix(1.25,0,0,-1.25,135.12127,235.25684)"
       style="fill:#000000">
      <path
         d="m 0,0 c -0.619,0 -1.107,0.488 -1.107,1.107 l 0,19.71 c 0,0.62 0.488,1.108 1.107,1.108 l 10.457,0 c 0.554,0 1.01,-0.456 1.01,-1.01 0,-0.554 -0.456,-1.01 -1.01,-1.01 l -9.35,0 0,-7.851 7.167,0 c 0.554,0 1.01,-0.456 1.01,-1.01 0,-0.554 -0.456,-1.01 -1.01,-1.01 l -7.167,0 0,-8.014 9.708,0 c 0.554,0 1.01,-0.457 1.01,-1.01 C 11.825,0.456 11.369,0 10.815,0 L 0,0 Z"
         style="fill:#000000;fill-opacity:1;fill-rule:nonzero;stroke:none"
         id="path6135"
         inkscape:connector-curvature="0" />
    </g>
    <g
       id="g6137"
       transform="matrix(1.25,0,0,-1.25,152.7544,221.57396)"
       style="fill:#000000">
      <path
         d="m 0,0 c 0,7.721 3.844,11.435 10.164,11.435 3.095,0 5.799,-1.336 7.33,-3.454 0.163,-0.228 0.228,-0.456 0.228,-0.684 0,-0.586 -0.456,-1.042 -1.042,-1.042 -0.293,0 -0.587,0.098 -0.848,0.423 C 14.725,8.209 12.607,9.415 10.164,9.415 5.147,9.415 2.28,6.385 2.28,0 c 0,-6.776 2.867,-9.383 7.884,-9.383 2.15,0 4.398,0.848 5.668,2.672 0.229,0.325 0.587,0.423 0.848,0.423 0.586,0 1.042,-0.456 1.042,-1.042 0,-0.261 -0.065,-0.424 -0.196,-0.619 -1.433,-2.085 -4.365,-3.453 -7.362,-3.453 C 3.844,-11.402 0,-8.015 0,0"
         style="fill:#000000;fill-opacity:1;fill-rule:nonzero;stroke:none"
         id="path6139"
         inkscape:connector-curvature="0" />
    </g>
    <g
       id="g6141"
       transform="matrix(1.25,0,0,-1.25,180.6914,235.25684)"
       style="fill:#000000">
      <path
         d="m 0,0 c -0.619,0 -1.107,0.488 -1.107,1.107 l 0,19.71 c 0,0.62 0.488,1.108 1.107,1.108 l 10.457,0 c 0.554,0 1.01,-0.456 1.01,-1.01 0,-0.554 -0.456,-1.01 -1.01,-1.01 l -9.35,0 0,-7.851 7.167,0 c 0.554,0 1.01,-0.456 1.01,-1.01 0,-0.554 -0.456,-1.01 -1.01,-1.01 l -7.167,0 0,-8.014 9.708,0 c 0.554,0 1.01,-0.457 1.01,-1.01 C 11.825,0.456 11.369,0 10.815,0 L 0,0 Z"
         style="fill:#000000;fill-opacity:1;fill-rule:nonzero;stroke:none"
         id="path6143"
         inkscape:connector-curvature="0" />
    </g>
    <g
       id="g6145"
       transform="matrix(1.25,0,0,-1.25,202.55902,220.88184)"
       style="fill:#000000">
      <path
         d="m 0,0 5.44,0 c 2.281,0 3.91,1.856 3.91,4.202 0,2.411 -1.662,4.203 -4.007,4.203 L 0,8.405 0,0 Z m 0,-10.653 c 0,-0.618 -0.488,-1.108 -1.107,-1.108 -0.62,0 -1.108,0.49 -1.108,1.108 l 0,19.97 c 0,0.62 0.488,1.108 1.108,1.108 l 6.482,0 c 3.616,0 6.223,-2.737 6.223,-6.223 0,-3.355 -2.313,-6.059 -5.831,-6.222 l 5.962,-7.949 c 0.162,-0.195 0.227,-0.456 0.227,-0.684 0,-0.618 -0.488,-1.108 -1.107,-1.108 -0.327,0 -0.685,0.131 -0.946,0.522 L 3.29,-2.02 0,-2.02 0,-10.653 Z"
         style="fill:#000000;fill-opacity:1;fill-rule:nonzero;stroke:none"
         id="path6147"
         inkscape:connector-curvature="0" />
    </g>
    <g
       id="g6149"
       transform="matrix(1.25,0,0,-1.25,219.94915,221.57396)"
       style="fill:#000000">
      <path
         d="m 0,0 c 0,7.721 3.844,11.435 10.164,11.435 3.095,0 5.799,-1.336 7.33,-3.454 0.163,-0.228 0.228,-0.456 0.228,-0.684 0,-0.586 -0.456,-1.042 -1.042,-1.042 -0.293,0 -0.587,0.098 -0.848,0.423 C 14.725,8.209 12.607,9.415 10.164,9.415 5.147,9.415 2.28,6.385 2.28,0 c 0,-6.776 2.867,-9.383 7.884,-9.383 2.15,0 4.398,0.848 5.668,2.672 0.229,0.325 0.587,0.423 0.848,0.423 0.586,0 1.042,-0.456 1.042,-1.042 0,-0.261 -0.065,-0.424 -0.196,-0.619 -1.433,-2.085 -4.365,-3.453 -7.362,-3.453 C 3.844,-11.402 0,-8.015 0,0"
         style="fill:#000000;fill-opacity:1;fill-rule:nonzero;stroke:none"
         id="path6151"
         inkscape:connector-curvature="0" />
    </g>
    <g
       id="g6153"
       transform="matrix(1.25,0,0,-1.25,255.50215,212.16721)"
       style="fill:#000000">
      <path
         d="m 0,0 -3.844,-9.969 7.721,0 L 0,0 Z m -4.528,-11.988 -2.378,-5.962 c -0.163,-0.424 -0.522,-0.782 -1.075,-0.782 -0.62,0 -1.108,0.521 -1.108,1.107 0,0.131 0.032,0.358 0.098,0.489 l 7.948,20.101 c 0.163,0.39 0.457,0.749 1.043,0.749 0.554,0 0.912,-0.359 1.075,-0.749 l 7.949,-20.101 c 0.065,-0.163 0.098,-0.391 0.098,-0.489 0,-0.586 -0.456,-1.107 -1.141,-1.107 -0.553,0 -0.912,0.326 -1.075,0.749 l -2.345,5.995 -9.089,0 z"
         style="fill:#000000;fill-opacity:1;fill-rule:nonzero;stroke:none"
         id="path6155"
         inkscape:connector-curvature="0" />
    </g>
    <g
       id="g6157"
       transform="matrix(1.25,0,0,-1.25,95.734151,276.20284)"
       style="stroke-width:0.8;stroke-miterlimit:4;stroke-dasharray:none;stroke:#4d4d4d;fill:#000000">
      <path
         d="m 0,0 c 0,-0.273 -0.213,-0.486 -0.486,-0.486 -0.274,0 -0.487,0.213 -0.487,0.486 l 0,19.97 c 0,0.273 0.213,0.486 0.487,0.486 C -0.213,20.456 0,20.243 0,19.97 L 0,0 Z"
         style="fill:#000000;fill-opacity:1;fill-rule:nonzero;stroke:#4d4d4d;stroke-width:0.8;stroke-miterlimit:4;stroke-dasharray:none"
         id="path6159"
         inkscape:connector-curvature="0" />
    </g>
    <g
       id="g6161"
       transform="matrix(1.25,0,0,-1.25,118.76027,251.20284)"
       style="stroke-width:0.8;stroke-miterlimit:4;stroke-dasharray:none;stroke:#4d4d4d;fill:#000000">
      <path
         d="m 0,0 0,-20 c 0,-0.273 -0.213,-0.486 -0.486,-0.486 -0.213,0 -0.335,0.09 -0.456,0.273 l -12.159,18.724 0,-18.541 c 0,-0.243 -0.212,-0.456 -0.456,-0.456 -0.243,0 -0.456,0.213 -0.456,0.456 l 0,20.03 c 0,0.243 0.213,0.456 0.456,0.456 0.183,0 0.304,-0.091 0.365,-0.183 l 12.28,-18.844 0,18.571 c 0,0.243 0.213,0.456 0.456,0.456 C -0.213,0.456 0,0.243 0,0"
         style="fill:#000000;fill-opacity:1;fill-rule:nonzero;stroke:#4d4d4d;stroke-width:0.8;stroke-miterlimit:4;stroke-dasharray:none"
         id="path6163"
         inkscape:connector-curvature="0" />
    </g>
    <g
       id="g6165"
       transform="matrix(1.25,0,0,-1.25,131.0344,251.42996)"
       style="stroke-width:0.8;stroke-miterlimit:4;stroke-dasharray:none;stroke:#4d4d4d;fill:#000000">
      <path
         d="m 0,0 c -3.829,0 -5.258,-1.915 -5.258,-4.073 0,-6.019 12.098,-3.496 12.098,-10.761 0,-3.646 -2.524,-5.653 -7.082,-5.653 -3.496,0 -5.624,1.641 -6.931,3.677 -0.06,0.092 -0.091,0.183 -0.091,0.275 0,0.242 0.213,0.455 0.455,0.455 0.183,0 0.305,-0.091 0.396,-0.243 1.155,-1.823 3.1,-3.313 6.171,-3.313 3.951,0 6.109,1.55 6.109,4.802 0,6.597 -12.097,3.739 -12.097,10.761 0,2.614 1.884,4.893 6.23,4.893 2.857,0 4.925,-1.094 6.354,-3.009 0.06,-0.091 0.09,-0.182 0.09,-0.274 0,-0.243 -0.213,-0.455 -0.456,-0.455 -0.182,0 -0.273,0.061 -0.364,0.182 C 4.59,-1.368 3.101,0 0,0"
         style="fill:#000000;fill-opacity:1;fill-rule:nonzero;stroke:#4d4d4d;stroke-width:0.8;stroke-miterlimit:4;stroke-dasharray:none"
         id="path6167"
         inkscape:connector-curvature="0" />
    </g>
    <g
       id="g6169"
       transform="matrix(1.25,0,0,-1.25,140.7244,251.99996)"
       style="stroke-width:0.8;stroke-miterlimit:4;stroke-dasharray:none;stroke:#4d4d4d;fill:#000000">
      <path
         d="m 0,0 c -0.243,0 -0.425,0.182 -0.425,0.425 0,0.243 0.182,0.426 0.425,0.426 l 13.557,0 c 0.243,0 0.425,-0.183 0.425,-0.426 C 13.982,0.182 13.8,0 13.557,0 l -6.292,0 0,-19.362 c 0,-0.274 -0.213,-0.487 -0.487,-0.487 -0.273,0 -0.486,0.213 -0.486,0.487 L 6.292,0 0,0 Z"
         style="fill:#000000;fill-opacity:1;fill-rule:nonzero;stroke:#4d4d4d;stroke-width:0.8;stroke-miterlimit:4;stroke-dasharray:none"
         id="path6171"
         inkscape:connector-curvature="0" />
    </g>
    <g
       id="g6173"
       transform="matrix(1.25,0,0,-1.25,162.9924,276.20284)"
       style="stroke-width:0.8;stroke-miterlimit:4;stroke-dasharray:none;stroke:#4d4d4d;fill:#000000">
      <path
         d="m 0,0 c 0,-0.273 -0.213,-0.486 -0.486,-0.486 -0.274,0 -0.487,0.213 -0.487,0.486 l 0,19.97 c 0,0.273 0.213,0.486 0.487,0.486 C -0.213,20.456 0,20.243 0,19.97 L 0,0 Z"
         style="fill:#000000;fill-opacity:1;fill-rule:nonzero;stroke:#4d4d4d;stroke-width:0.8;stroke-miterlimit:4;stroke-dasharray:none"
         id="path6175"
         inkscape:connector-curvature="0" />
    </g>
    <g
       id="g6177"
       transform="matrix(1.25,0,0,-1.25,167.0964,251.99996)"
       style="stroke-width:0.8;stroke-miterlimit:4;stroke-dasharray:none;stroke:#4d4d4d;fill:#000000">
      <path
         d="m 0,0 c -0.243,0 -0.425,0.182 -0.425,0.425 0,0.243 0.182,0.426 0.425,0.426 l 13.557,0 c 0.243,0 0.425,-0.183 0.425,-0.426 C 13.982,0.182 13.8,0 13.557,0 l -6.292,0 0,-19.362 c 0,-0.274 -0.213,-0.487 -0.487,-0.487 -0.273,0 -0.486,0.213 -0.486,0.487 L 6.292,0 0,0 Z"
         style="fill:#000000;fill-opacity:1;fill-rule:nonzero;stroke:#4d4d4d;stroke-width:0.8;stroke-miterlimit:4;stroke-dasharray:none"
         id="path6179"
         inkscape:connector-curvature="0" />
    </g>
    <g
       id="g6181"
       transform="matrix(1.25,0,0,-1.25,188.14865,268.98359)"
       style="stroke-width:0.8;stroke-miterlimit:4;stroke-dasharray:none;stroke:#4d4d4d;fill:#000000">
      <path
         d="m 0,0 0,14.194 c 0,0.274 0.213,0.487 0.486,0.487 0.274,0 0.487,-0.213 0.487,-0.487 L 0.973,0 c 0,-2.827 1.064,-5.593 5.988,-5.593 4.924,0 5.957,2.766 5.957,5.593 l 0,14.194 c 0,0.274 0.213,0.487 0.486,0.487 0.274,0 0.487,-0.213 0.487,-0.487 L 13.891,0 c 0,-3.223 -1.337,-6.444 -6.93,-6.444 C 1.368,-6.444 0,-3.223 0,0"
         style="fill:#000000;fill-opacity:1;fill-rule:nonzero;stroke:#4d4d4d;stroke-width:0.8;stroke-miterlimit:4;stroke-dasharray:none"
         id="path6183"
         inkscape:connector-curvature="0" />
    </g>
    <g
       id="g6185"
       transform="matrix(1.25,0,0,-1.25,209.23752,251.99996)"
       style="stroke-width:0.8;stroke-miterlimit:4;stroke-dasharray:none;stroke:#4d4d4d;fill:#000000">
      <path
         d="m 0,0 c -0.243,0 -0.425,0.182 -0.425,0.425 0,0.243 0.182,0.426 0.425,0.426 l 13.557,0 c 0.243,0 0.425,-0.183 0.425,-0.426 C 13.982,0.182 13.8,0 13.557,0 l -6.292,0 0,-19.362 c 0,-0.274 -0.213,-0.487 -0.487,-0.487 -0.273,0 -0.486,0.213 -0.486,0.487 L 6.292,0 0,0 Z"
         style="fill:#000000;fill-opacity:1;fill-rule:nonzero;stroke:#4d4d4d;stroke-width:0.8;stroke-miterlimit:4;stroke-dasharray:none"
         id="path6187"
         inkscape:connector-curvature="0" />
    </g>
    <g
       id="g6189"
       transform="matrix(1.25,0,0,-1.25,247.12327,252.53221)"
       style="stroke-width:0.8;stroke-miterlimit:4;stroke-dasharray:none;stroke:#4d4d4d;fill:#000000">
      <path
         d="m 0,0 -4.59,-11.794 9.179,0 L 0,0 Z m -4.895,-12.675 -2.522,-6.414 c -0.061,-0.182 -0.243,-0.334 -0.486,-0.334 -0.274,0 -0.487,0.213 -0.487,0.486 0,0.061 0.031,0.183 0.061,0.244 L -0.456,1.186 C -0.396,1.368 -0.244,1.52 0,1.52 0.242,1.52 0.425,1.368 0.486,1.186 l 7.842,-19.879 c 0.03,-0.061 0.061,-0.183 0.061,-0.244 0,-0.273 -0.213,-0.486 -0.517,-0.486 -0.243,0 -0.395,0.152 -0.486,0.365 l -2.492,6.383 -9.789,0 z"
         style="fill:#000000;fill-opacity:1;fill-rule:nonzero;stroke:#4d4d4d;stroke-width:0.8;stroke-miterlimit:4;stroke-dasharray:none"
         id="path6191"
         inkscape:connector-curvature="0" />
    </g>
    <g
       id="g6193"
       transform="matrix(1.25,0,0,-1.25,265.85865,274.56959)"
       style="stroke-width:0.8;stroke-miterlimit:4;stroke-dasharray:none;stroke:#4d4d4d;fill:#000000">
      <path
         d="m 0,0 7.052,18.815 c 0.06,0.152 0.181,0.334 0.456,0.334 0.304,0 0.516,-0.212 0.516,-0.516 0,-0.091 -0.061,-0.243 -0.061,-0.243 L 0.455,-1.489 c -0.06,-0.183 -0.273,-0.304 -0.486,-0.304 -0.212,0 -0.395,0.121 -0.455,0.304 L -8.024,18.39 c 0,0 -0.062,0.122 -0.062,0.243 0,0.304 0.213,0.516 0.486,0.516 0.274,0 0.426,-0.151 0.487,-0.334 L 0,0 Z"
         style="fill:#000000;fill-opacity:1;fill-rule:nonzero;stroke:#4d4d4d;stroke-width:0.8;stroke-miterlimit:4;stroke-dasharray:none"
         id="path6195"
         inkscape:connector-curvature="0" />
    </g>
    <g
       id="g6197"
       transform="matrix(1.25,0,0,-1.25,284.5134,252.53221)"
       style="stroke-width:0.8;stroke-miterlimit:4;stroke-dasharray:none;stroke:#4d4d4d;fill:#000000">
      <path
         d="m 0,0 -4.589,-11.794 9.179,0 L 0,0 Z m -4.894,-12.675 -2.522,-6.414 c -0.061,-0.182 -0.243,-0.334 -0.486,-0.334 -0.274,0 -0.487,0.213 -0.487,0.486 0,0.061 0.031,0.183 0.061,0.244 L -0.455,1.186 C -0.395,1.368 -0.242,1.52 0,1.52 0.244,1.52 0.426,1.368 0.486,1.186 l 7.843,-19.879 c 0.03,-0.061 0.061,-0.183 0.061,-0.244 0,-0.273 -0.213,-0.486 -0.517,-0.486 -0.243,0 -0.395,0.152 -0.486,0.365 l -2.492,6.383 -9.789,0 z"
         style="fill:#000000;fill-opacity:1;fill-rule:nonzero;stroke:#4d4d4d;stroke-width:0.8;stroke-miterlimit:4;stroke-dasharray:none"
         id="path6199"
         inkscape:connector-curvature="0" />
    </g>
    <g
       id="g6201"
       transform="matrix(1.25,0,0,-1.25,311.72165,275.44359)"
       style="stroke-width:0.8;stroke-miterlimit:4;stroke-dasharray:none;stroke:#4d4d4d;fill:#000000">
      <path
         d="M 0,0 C 0.243,0 0.426,-0.182 0.426,-0.425 0.426,-0.668 0.243,-0.851 0,-0.851 l -10,0 c -0.243,0 -0.426,0.183 -0.426,0.426 l 0,19.787 c 0,0.274 0.213,0.487 0.487,0.487 0.273,0 0.486,-0.213 0.486,-0.487 L -9.453,0 0,0 Z"
         style="fill:#000000;fill-opacity:1;fill-rule:nonzero;stroke:#4d4d4d;stroke-width:0.8;stroke-miterlimit:4;stroke-dasharray:none"
         id="path6203"
         inkscape:connector-curvature="0" />
    </g>
    <g
       id="g6205"
       transform="matrix(1.25,0,0,-1.25,315.86477,268.98359)"
       style="stroke-width:0.8;stroke-miterlimit:4;stroke-dasharray:none;stroke:#4d4d4d;fill:#000000">
      <path
         d="m 0,0 0,14.194 c 0,0.274 0.213,0.487 0.486,0.487 0.274,0 0.487,-0.213 0.487,-0.487 L 0.973,0 c 0,-2.827 1.064,-5.593 5.988,-5.593 4.924,0 5.957,2.766 5.957,5.593 l 0,14.194 c 0,0.274 0.213,0.487 0.486,0.487 0.275,0 0.487,-0.213 0.487,-0.487 L 13.891,0 c 0,-3.223 -1.337,-6.444 -6.93,-6.444 C 1.368,-6.444 0,-3.223 0,0"
         style="fill:#000000;fill-opacity:1;fill-rule:nonzero;stroke:#4d4d4d;stroke-width:0.8;stroke-miterlimit:4;stroke-dasharray:none"
         id="path6207"
         inkscape:connector-curvature="0" />
    </g>
    <g
       id="g6209"
       transform="matrix(1.25,0,0,-1.25,345.88302,252.53221)"
       style="stroke-width:0.8;stroke-miterlimit:4;stroke-dasharray:none;stroke:#4d4d4d;fill:#000000">
      <path
         d="m 0,0 -4.589,-11.794 9.179,0 L 0,0 Z m -4.894,-12.675 -2.522,-6.414 c -0.061,-0.182 -0.243,-0.334 -0.486,-0.334 -0.274,0 -0.487,0.213 -0.487,0.486 0,0.061 0.031,0.183 0.061,0.244 L -0.455,1.186 C -0.395,1.368 -0.242,1.52 0,1.52 0.244,1.52 0.426,1.368 0.486,1.186 l 7.843,-19.879 c 0.03,-0.061 0.061,-0.183 0.061,-0.244 0,-0.273 -0.213,-0.486 -0.517,-0.486 -0.243,0 -0.395,0.152 -0.486,0.365 l -2.492,6.383 -9.789,0 z"
         style="fill:#000000;fill-opacity:1;fill-rule:nonzero;stroke:#4d4d4d;stroke-width:0.8;stroke-miterlimit:4;stroke-dasharray:none"
         id="path6211"
         inkscape:connector-curvature="0" />
    </g>
    <g
       id="g6213"
       transform="matrix(1.25,0,0,-1.25,357.16965,263.74071)"
       style="stroke-width:0.8;stroke-miterlimit:4;stroke-dasharray:none;stroke:#4d4d4d;fill:#000000">
      <path
         d="m 0,0 c 0,7.204 3.496,10.669 9.362,10.669 2.888,0 5.38,-1.246 6.748,-3.161 0.061,-0.091 0.121,-0.213 0.121,-0.335 0,-0.242 -0.182,-0.425 -0.424,-0.425 -0.122,0 -0.244,0.03 -0.366,0.183 C 14.226,8.571 12.007,9.817 9.362,9.817 4.013,9.817 0.973,6.748 0.973,0 c 0,-7.143 3.04,-9.787 8.389,-9.787 2.31,0 4.651,0.911 6.079,2.826 0.122,0.152 0.244,0.183 0.366,0.183 0.242,0 0.424,-0.183 0.424,-0.426 0,-0.061 -0.03,-0.182 -0.09,-0.274 -1.307,-1.975 -3.952,-3.161 -6.779,-3.161 C 3.496,-10.639 0,-7.508 0,0"
         style="fill:#000000;fill-opacity:1;fill-rule:nonzero;stroke:#4d4d4d;stroke-width:0.8;stroke-miterlimit:4;stroke-dasharray:none"
         id="path6215"
         inkscape:connector-curvature="0" />
    </g>
    <g
       id="g6217"
       transform="matrix(1.25,0,0,-1.25,382.81902,276.20284)"
       style="stroke-width:0.8;stroke-miterlimit:4;stroke-dasharray:none;stroke:#4d4d4d;fill:#000000">
      <path
         d="m 0,0 c 0,-0.273 -0.213,-0.486 -0.486,-0.486 -0.274,0 -0.487,0.213 -0.487,0.486 l 0,19.97 c 0,0.273 0.213,0.486 0.487,0.486 C -0.213,20.456 0,20.243 0,19.97 L 0,0 Z"
         style="fill:#000000;fill-opacity:1;fill-rule:nonzero;stroke:#4d4d4d;stroke-width:0.8;stroke-miterlimit:4;stroke-dasharray:none"
         id="path6219"
         inkscape:connector-curvature="0" />
    </g>
    <g
       id="g6221"
       transform="matrix(1.25,0,0,-1.25,401.8169,244.66721)"
       style="stroke-width:0.8;stroke-miterlimit:4;stroke-dasharray:none;stroke:#4d4d4d">
      <path
         d="m 0,0 -3.161,-3.404 c -0.182,-0.213 -0.364,-0.153 -0.486,-0.031 -0.152,0.152 -0.213,0.304 -0.061,0.487 l 3.01,3.586 c 0.181,0.213 0.425,0.243 0.668,0.03 C 0.183,0.486 0.213,0.213 0,0 m -10.911,-15.259 c 0,-6.718 3.039,-9.787 8.389,-9.787 5.349,0 8.388,3.069 8.388,9.787 0,6.748 -3.039,9.818 -8.388,9.818 -5.35,0 -8.389,-3.07 -8.389,-9.818 m -0.973,0 c 0,7.204 3.495,10.669 9.362,10.669 5.866,0 9.361,-3.465 9.361,-10.669 0,-7.173 -3.495,-10.638 -9.361,-10.638 -5.867,0 -9.362,3.465 -9.362,10.638"
         style="fill:#444141;fill-opacity:1;fill-rule:nonzero;stroke:#4d4d4d;stroke-width:0.8;stroke-miterlimit:4;stroke-dasharray:none"
         id="path6223"
         inkscape:connector-curvature="0" />
    </g>
    <g
       id="g6225"
       transform="matrix(1.25,0,0,-1.25,424.2754,276.20284)"
       style="stroke-width:0.8;stroke-miterlimit:4;stroke-dasharray:none;stroke:#4d4d4d;fill:#000000">
      <path
         d="m 0,0 c 0,-0.273 -0.213,-0.486 -0.486,-0.486 -0.274,0 -0.487,0.213 -0.487,0.486 l 0,19.97 c 0,0.273 0.213,0.486 0.487,0.486 C -0.213,20.456 0,20.243 0,19.97 L 0,0 Z"
         style="fill:#000000;fill-opacity:1;fill-rule:nonzero;stroke:#4d4d4d;stroke-width:0.8;stroke-miterlimit:4;stroke-dasharray:none"
         id="path6227"
         inkscape:connector-curvature="0" />
    </g>
    <g
       id="g6229"
       transform="matrix(1.25,0,0,-1.25,438.1829,263.74071)"
       style="stroke-width:0.8;stroke-miterlimit:4;stroke-dasharray:none;stroke:#4d4d4d;fill:#000000">
      <path
         d="m 0,0 c 0,-6.718 3.04,-9.787 8.39,-9.787 5.349,0 8.389,3.069 8.389,9.787 0,6.748 -3.04,9.817 -8.389,9.817 C 3.04,9.817 0,6.748 0,0 m -0.973,0 c 0,7.204 3.496,10.669 9.363,10.669 5.866,0 9.362,-3.465 9.362,-10.669 0,-5.745 -2.401,-9.149 -6.262,-10.213 1.459,-0.273 2.432,-1.125 3.556,-2.279 0.092,-0.092 0.152,-0.213 0.152,-0.365 0,-0.244 -0.213,-0.456 -0.486,-0.456 -0.122,0 -0.213,0.03 -0.334,0.152 -1.277,1.398 -2.767,2.522 -5.076,2.522 l -0.912,0 c -5.867,0 -9.363,3.466 -9.363,10.639"
         style="fill:#000000;fill-opacity:1;fill-rule:nonzero;stroke:#4d4d4d;stroke-width:0.8;stroke-miterlimit:4;stroke-dasharray:none"
         id="path6231"
         inkscape:connector-curvature="0" />
    </g>
    <g
       id="g6233"
       transform="matrix(1.25,0,0,-1.25,464.09965,268.98359)"
       style="stroke-width:0.8;stroke-miterlimit:4;stroke-dasharray:none;stroke:#4d4d4d;fill:#000000">
      <path
         d="m 0,0 0,14.194 c 0,0.274 0.213,0.487 0.486,0.487 0.274,0 0.487,-0.213 0.487,-0.487 L 0.973,0 c 0,-2.827 1.064,-5.593 5.988,-5.593 4.924,0 5.957,2.766 5.957,5.593 l 0,14.194 c 0,0.274 0.213,0.487 0.486,0.487 0.275,0 0.487,-0.213 0.487,-0.487 L 13.891,0 c 0,-3.223 -1.337,-6.444 -6.93,-6.444 C 1.368,-6.444 0,-3.223 0,0"
         style="fill:#000000;fill-opacity:1;fill-rule:nonzero;stroke:#4d4d4d;stroke-width:0.8;stroke-miterlimit:4;stroke-dasharray:none"
         id="path6235"
         inkscape:connector-curvature="0" />
    </g>
    <g
       id="g6237"
       transform="matrix(1.25,0,0,-1.25,494.1179,252.53221)"
       style="stroke-width:0.8;stroke-miterlimit:4;stroke-dasharray:none;stroke:#4d4d4d;fill:#000000">
      <path
         d="m 0,0 -4.59,-11.794 9.179,0 L 0,0 Z m -4.895,-12.675 -2.522,-6.414 c -0.061,-0.182 -0.243,-0.334 -0.486,-0.334 -0.274,0 -0.487,0.213 -0.487,0.486 0,0.061 0.031,0.183 0.061,0.244 L -0.456,1.186 C -0.396,1.368 -0.244,1.52 0,1.52 0.242,1.52 0.425,1.368 0.486,1.186 l 7.842,-19.879 c 0.03,-0.061 0.061,-0.183 0.061,-0.244 0,-0.273 -0.213,-0.486 -0.517,-0.486 -0.243,0 -0.395,0.152 -0.486,0.365 l -2.492,6.383 -9.789,0 z"
         style="fill:#000000;fill-opacity:1;fill-rule:nonzero;stroke:#4d4d4d;stroke-width:0.8;stroke-miterlimit:4;stroke-dasharray:none"
         id="path6239"
         inkscape:connector-curvature="0" />
    </g>
    <g
       id="g6241"
       transform="matrix(1.25,0,0,-1.25,521.3249,275.44359)"
       style="stroke-width:0.8;stroke-miterlimit:4;stroke-dasharray:none;stroke:#4d4d4d;fill:#000000">
      <path
         d="M 0,0 C 0.243,0 0.426,-0.182 0.426,-0.425 0.426,-0.668 0.243,-0.851 0,-0.851 l -10,0 c -0.243,0 -0.426,0.183 -0.426,0.426 l 0,19.787 c 0,0.274 0.213,0.487 0.487,0.487 0.273,0 0.486,-0.213 0.486,-0.487 L -9.453,0 0,0 Z"
         style="fill:#000000;fill-opacity:1;fill-rule:nonzero;stroke:#4d4d4d;stroke-width:0.8;stroke-miterlimit:4;stroke-dasharray:none"
         id="path6243"
         inkscape:connector-curvature="0" />
    </g>
    <g
       id="g6245"
       transform="matrix(1.25,0,0,-1.25,526.68377,276.20284)"
       style="stroke-width:0.8;stroke-miterlimit:4;stroke-dasharray:none;stroke:#4d4d4d;fill:#000000">
      <path
         d="m 0,0 c 0,-0.273 -0.213,-0.486 -0.486,-0.486 -0.274,0 -0.487,0.213 -0.487,0.486 l 0,19.97 c 0,0.273 0.213,0.486 0.487,0.486 C -0.213,20.456 0,20.243 0,19.97 L 0,0 Z"
         style="fill:#000000;fill-opacity:1;fill-rule:nonzero;stroke:#4d4d4d;stroke-width:0.8;stroke-miterlimit:4;stroke-dasharray:none"
         id="path6247"
         inkscape:connector-curvature="0" />
    </g>
    <g
       id="g6249"
       transform="matrix(1.25,0,0,-1.25,530.78777,251.99996)"
       style="stroke-width:0.8;stroke-miterlimit:4;stroke-dasharray:none;stroke:#4d4d4d;fill:#000000">
      <path
         d="m 0,0 c -0.243,0 -0.425,0.182 -0.425,0.425 0,0.243 0.182,0.426 0.425,0.426 l 13.557,0 c 0.243,0 0.425,-0.183 0.425,-0.426 C 13.982,0.182 13.8,0 13.557,0 l -6.292,0 0,-19.362 c 0,-0.274 -0.213,-0.487 -0.487,-0.487 -0.273,0 -0.486,0.213 -0.486,0.487 L 6.292,0 0,0 Z"
         style="fill:#000000;fill-opacity:1;fill-rule:nonzero;stroke:#4d4d4d;stroke-width:0.8;stroke-miterlimit:4;stroke-dasharray:none"
         id="path6251"
         inkscape:connector-curvature="0" />
    </g>
    <g
       id="g6253"
       transform="matrix(1.25,0,0,-1.25,556.3249,252.53221)"
       style="stroke-width:0.8;stroke-miterlimit:4;stroke-dasharray:none;stroke:#4d4d4d;fill:#000000">
      <path
         d="m 0,0 -4.59,-11.794 9.179,0 L 0,0 Z m -4.895,-12.675 -2.522,-6.414 c -0.061,-0.182 -0.243,-0.334 -0.486,-0.334 -0.274,0 -0.487,0.213 -0.487,0.486 0,0.061 0.031,0.183 0.061,0.244 L -0.456,1.186 C -0.396,1.368 -0.244,1.52 0,1.52 0.242,1.52 0.425,1.368 0.486,1.186 l 7.842,-19.879 c 0.03,-0.061 0.061,-0.183 0.061,-0.244 0,-0.273 -0.213,-0.486 -0.517,-0.486 -0.243,0 -0.395,0.152 -0.486,0.365 l -2.492,6.383 -9.789,0 z"
         style="fill:#000000;fill-opacity:1;fill-rule:nonzero;stroke:#4d4d4d;stroke-width:0.8;stroke-miterlimit:4;stroke-dasharray:none"
         id="path6255"
         inkscape:connector-curvature="0" />
    </g>
    <g
       id="g6257"
       transform="matrix(1.25,0,0,-1.25,564.91252,251.99996)"
       style="stroke-width:0.8;stroke-miterlimit:4;stroke-dasharray:none;stroke:#4d4d4d;fill:#000000">
      <path
         d="m 0,0 c -0.243,0 -0.425,0.182 -0.425,0.425 0,0.243 0.182,0.426 0.425,0.426 l 13.557,0 c 0.243,0 0.425,-0.183 0.425,-0.426 C 13.982,0.182 13.8,0 13.557,0 l -6.292,0 0,-19.362 c 0,-0.274 -0.213,-0.487 -0.487,-0.487 -0.273,0 -0.486,0.213 -0.486,0.487 L 6.292,0 0,0 Z"
         style="fill:#000000;fill-opacity:1;fill-rule:nonzero;stroke:#4d4d4d;stroke-width:0.8;stroke-miterlimit:4;stroke-dasharray:none"
         id="path6259"
         inkscape:connector-curvature="0" />
    </g>
    <g
       id="g6261"
       transform="matrix(1.25,0,0,-1.25,101.28102,292.67997)"
       style="stroke-width:0.8;stroke-miterlimit:4;stroke-dasharray:none;stroke:#4d4d4d;fill:#000000">
      <path
         d="m 0,0 c -3.829,0 -5.258,-1.915 -5.258,-4.073 0,-6.019 12.098,-3.496 12.098,-10.761 0,-3.646 -2.524,-5.653 -7.082,-5.653 -3.496,0 -5.624,1.641 -6.931,3.677 -0.06,0.092 -0.091,0.183 -0.091,0.275 0,0.242 0.213,0.455 0.455,0.455 0.183,0 0.305,-0.091 0.396,-0.243 1.155,-1.823 3.1,-3.313 6.171,-3.313 3.951,0 6.109,1.55 6.109,4.802 0,6.597 -12.097,3.739 -12.097,10.761 0,2.614 1.884,4.893 6.23,4.893 2.857,0 4.925,-1.094 6.354,-3.009 0.06,-0.091 0.09,-0.182 0.09,-0.274 0,-0.243 -0.213,-0.455 -0.456,-0.455 -0.182,0 -0.273,0.061 -0.364,0.182 C 4.59,-1.368 3.101,0 0,0"
         style="fill:#000000;fill-opacity:1;fill-rule:nonzero;stroke:#4d4d4d;stroke-width:0.8;stroke-miterlimit:4;stroke-dasharray:none"
         id="path6263"
         inkscape:connector-curvature="0" />
    </g>
    <g
       id="g6265"
       transform="matrix(1.25,0,0,-1.25,115.49365,317.45284)"
       style="stroke-width:0.8;stroke-miterlimit:4;stroke-dasharray:none;stroke:#4d4d4d;fill:#000000">
      <path
         d="m 0,0 c 0,-0.273 -0.213,-0.486 -0.486,-0.486 -0.274,0 -0.487,0.213 -0.487,0.486 l 0,19.97 c 0,0.273 0.213,0.486 0.487,0.486 C -0.213,20.456 0,20.243 0,19.97 L 0,0 Z"
         style="fill:#000000;fill-opacity:1;fill-rule:nonzero;stroke:#4d4d4d;stroke-width:0.8;stroke-miterlimit:4;stroke-dasharray:none"
         id="path6267"
         inkscape:connector-curvature="0" />
    </g>
    <g
       id="g6269"
       transform="matrix(1.25,0,0,-1.25,128.52702,292.67997)"
       style="stroke-width:0.8;stroke-miterlimit:4;stroke-dasharray:none;stroke:#4d4d4d;fill:#000000">
      <path
         d="m 0,0 c -3.83,0 -5.259,-1.915 -5.259,-4.073 0,-6.019 12.098,-3.496 12.098,-10.761 0,-3.646 -2.524,-5.653 -7.083,-5.653 -3.495,0 -5.623,1.641 -6.93,3.677 -0.06,0.092 -0.091,0.183 -0.091,0.275 0,0.242 0.212,0.455 0.456,0.455 0.182,0 0.304,-0.091 0.395,-0.243 1.155,-1.823 3.101,-3.313 6.17,-3.313 3.952,0 6.11,1.55 6.11,4.802 0,6.597 -12.097,3.739 -12.097,10.761 0,2.614 1.884,4.893 6.231,4.893 2.856,0 4.924,-1.094 6.353,-3.009 0.06,-0.091 0.09,-0.182 0.09,-0.274 0,-0.243 -0.213,-0.455 -0.456,-0.455 -0.182,0 -0.273,0.061 -0.364,0.182 C 4.589,-1.368 3.1,0 0,0"
         style="fill:#000000;fill-opacity:1;fill-rule:nonzero;stroke:#4d4d4d;stroke-width:0.8;stroke-miterlimit:4;stroke-dasharray:none"
         id="path6271"
         inkscape:connector-curvature="0" />
    </g>
    <g
       id="g6273"
       transform="matrix(1.25,0,0,-1.25,138.59665,293.24996)"
       style="stroke-width:0.8;stroke-miterlimit:4;stroke-dasharray:none;stroke:#4d4d4d;fill:#000000">
      <path
         d="m 0,0 c -0.243,0 -0.425,0.182 -0.425,0.425 0,0.243 0.182,0.426 0.425,0.426 l 13.557,0 c 0.243,0 0.425,-0.183 0.425,-0.426 C 13.982,0.182 13.8,0 13.557,0 l -6.292,0 0,-19.362 c 0,-0.274 -0.213,-0.487 -0.487,-0.487 -0.273,0 -0.486,0.213 -0.486,0.487 L 6.292,0 0,0 Z"
         style="fill:#000000;fill-opacity:1;fill-rule:nonzero;stroke:#4d4d4d;stroke-width:0.8;stroke-miterlimit:4;stroke-dasharray:none"
         id="path6275"
         inkscape:connector-curvature="0" />
    </g>
    <g
       id="g6277"
       transform="matrix(1.25,0,0,-1.25,160.6364,317.75684)"
       style="stroke-width:0.8;stroke-miterlimit:4;stroke-dasharray:none;stroke:#4d4d4d;fill:#000000">
      <path
         d="m 0,0 c -0.273,0 -0.486,0.213 -0.486,0.486 l 0,19.484 c 0,0.273 0.213,0.486 0.486,0.486 l 10.305,0 c 0.243,0 0.424,-0.183 0.424,-0.426 0,-0.243 -0.181,-0.425 -0.424,-0.425 l -9.819,0 0,-8.876 7.66,0 c 0.244,0 0.426,-0.182 0.426,-0.425 0,-0.243 -0.182,-0.425 -0.426,-0.425 l -7.66,0 0,-9.028 10.183,0 c 0.243,0 0.426,-0.182 0.426,-0.425 C 11.095,0.183 10.912,0 10.669,0 L 0,0 Z"
         style="fill:#000000;fill-opacity:1;fill-rule:nonzero;stroke:#4d4d4d;stroke-width:0.8;stroke-miterlimit:4;stroke-dasharray:none"
         id="path6279"
         inkscape:connector-curvature="0" />
    </g>
    <g
       id="g6281"
       transform="matrix(1.25,0,0,-1.25,189.3254,313.12184)"
       style="stroke-width:0.8;stroke-miterlimit:4;stroke-dasharray:none;stroke:#4d4d4d;fill:#000000">
      <path
         d="m 0,0 -7.721,14.742 0,-18.237 c 0,-0.243 -0.213,-0.456 -0.456,-0.456 -0.243,0 -0.456,0.213 -0.456,0.456 l 0,20.03 c 0,0.243 0.213,0.456 0.456,0.456 0.213,0 0.334,-0.121 0.396,-0.243 L 0.425,1.064 8.632,16.748 c 0.06,0.122 0.182,0.243 0.395,0.243 0.244,0 0.455,-0.213 0.455,-0.456 l 0,-20.03 c 0,-0.243 -0.211,-0.456 -0.455,-0.456 -0.243,0 -0.456,0.213 -0.456,0.456 l 0,18.237 L 0.851,0 C 0.76,-0.213 0.607,-0.304 0.425,-0.304 0.242,-0.304 0.091,-0.213 0,0"
         style="fill:#000000;fill-opacity:1;fill-rule:nonzero;stroke:#4d4d4d;stroke-width:0.8;stroke-miterlimit:4;stroke-dasharray:none"
         id="path6283"
         inkscape:connector-curvature="0" />
    </g>
    <g
       id="g6285"
       transform="matrix(1.25,0,0,-1.25,215.73415,293.78221)"
       style="stroke-width:0.8;stroke-miterlimit:4;stroke-dasharray:none;stroke:#4d4d4d;fill:#000000">
      <path
         d="m 0,0 -4.589,-11.794 9.179,0 L 0,0 Z m -4.894,-12.675 -2.522,-6.414 c -0.061,-0.182 -0.243,-0.334 -0.486,-0.334 -0.274,0 -0.487,0.213 -0.487,0.486 0,0.061 0.031,0.183 0.061,0.244 L -0.455,1.186 C -0.395,1.368 -0.242,1.52 0,1.52 0.244,1.52 0.426,1.368 0.486,1.186 l 7.843,-19.879 c 0.03,-0.061 0.061,-0.183 0.061,-0.244 0,-0.273 -0.213,-0.486 -0.517,-0.486 -0.243,0 -0.395,0.152 -0.486,0.365 l -2.492,6.383 -9.789,0 z"
         style="fill:#000000;fill-opacity:1;fill-rule:nonzero;stroke:#4d4d4d;stroke-width:0.8;stroke-miterlimit:4;stroke-dasharray:none"
         id="path6287"
         inkscape:connector-curvature="0" />
    </g>
    <g
       id="g6289"
       transform="matrix(1.25,0,0,-1.25,239.82715,317.75684)"
       style="stroke-width:0.8;stroke-miterlimit:4;stroke-dasharray:none;stroke:#4d4d4d;fill:#000000">
      <path
         d="m 0,0 c -0.273,0 -0.486,0.213 -0.486,0.486 l 0,19.484 c 0,0.273 0.213,0.486 0.486,0.486 l 10.305,0 c 0.243,0 0.424,-0.183 0.424,-0.426 0,-0.243 -0.181,-0.425 -0.424,-0.425 l -9.819,0 0,-8.876 7.66,0 c 0.244,0 0.425,-0.182 0.425,-0.425 0,-0.243 -0.181,-0.425 -0.425,-0.425 l -7.66,0 0,-9.028 10.183,0 c 0.243,0 0.426,-0.182 0.426,-0.425 C 11.095,0.183 10.912,0 10.669,0 L 0,0 Z"
         style="fill:#000000;fill-opacity:1;fill-rule:nonzero;stroke:#4d4d4d;stroke-width:0.8;stroke-miterlimit:4;stroke-dasharray:none"
         id="path6291"
         inkscape:connector-curvature="0" />
    </g>
    <g
       id="g6293"
       transform="matrix(1.25,0,0,-1.25,259.32177,316.69359)"
       style="stroke-width:0.8;stroke-miterlimit:4;stroke-dasharray:none;stroke:#4d4d4d;fill:#000000">
      <path
         d="m 0,0 4.043,0 c 5.167,0 8.389,2.22 8.389,9.362 0,7.082 -3.222,9.393 -8.389,9.393 L 0,18.755 0,0 Z m 4.043,19.605 c 5.806,0 9.361,-2.735 9.361,-10.243 0,-7.508 -3.555,-10.213 -9.361,-10.213 l -4.529,0 c -0.274,0 -0.487,0.213 -0.487,0.487 l 0,19.483 c 0,0.274 0.213,0.486 0.487,0.486 l 4.529,0 z"
         style="fill:#000000;fill-opacity:1;fill-rule:nonzero;stroke:#4d4d4d;stroke-width:0.8;stroke-miterlimit:4;stroke-dasharray:none"
         id="path6295"
         inkscape:connector-curvature="0" />
    </g>
    <g
       id="g6297"
       transform="matrix(1.25,0,0,-1.25,280.60102,310.23359)"
       style="stroke-width:0.8;stroke-miterlimit:4;stroke-dasharray:none;stroke:#4d4d4d;fill:#000000">
      <path
         d="m 0,0 0,14.194 c 0,0.274 0.213,0.487 0.486,0.487 0.274,0 0.487,-0.213 0.487,-0.487 L 0.973,0 c 0,-2.827 1.064,-5.593 5.988,-5.593 4.924,0 5.957,2.766 5.957,5.593 l 0,14.194 c 0,0.274 0.213,0.487 0.486,0.487 0.275,0 0.487,-0.213 0.487,-0.487 L 13.891,0 c 0,-3.223 -1.337,-6.444 -6.93,-6.444 C 1.368,-6.444 0,-3.223 0,0"
         style="fill:#000000;fill-opacity:1;fill-rule:nonzero;stroke:#4d4d4d;stroke-width:0.8;stroke-miterlimit:4;stroke-dasharray:none"
         id="path6299"
         inkscape:connector-curvature="0" />
    </g>
    <g
       id="g6301"
       transform="matrix(1.25,0,0,-1.25,302.10865,304.99071)"
       style="stroke-width:0.8;stroke-miterlimit:4;stroke-dasharray:none;stroke:#4d4d4d;fill:#000000">
      <path
         d="m 0,0 c 0,7.204 3.496,10.669 9.362,10.669 2.888,0 5.38,-1.246 6.748,-3.161 0.061,-0.091 0.121,-0.213 0.121,-0.335 0,-0.242 -0.182,-0.425 -0.424,-0.425 -0.122,0 -0.244,0.03 -0.366,0.183 C 14.226,8.571 12.007,9.817 9.362,9.817 4.013,9.817 0.973,6.748 0.973,0 c 0,-7.143 3.04,-9.787 8.389,-9.787 2.31,0 4.651,0.911 6.079,2.826 0.122,0.152 0.244,0.183 0.366,0.183 0.242,0 0.424,-0.183 0.424,-0.426 0,-0.061 -0.03,-0.182 -0.09,-0.274 -1.307,-1.975 -3.952,-3.161 -6.779,-3.161 C 3.496,-10.639 0,-7.508 0,0"
         style="fill:#000000;fill-opacity:1;fill-rule:nonzero;stroke:#4d4d4d;stroke-width:0.8;stroke-miterlimit:4;stroke-dasharray:none"
         id="path6303"
         inkscape:connector-curvature="0" />
    </g>
    <g
       id="g6305"
       transform="matrix(1.25,0,0,-1.25,335.0164,293.78221)"
       style="stroke-width:0.8;stroke-miterlimit:4;stroke-dasharray:none;stroke:#4d4d4d;fill:#000000">
      <path
         d="m 0,0 -4.59,-11.794 9.179,0 L 0,0 Z m -4.895,-12.675 -2.522,-6.414 c -0.061,-0.182 -0.243,-0.334 -0.486,-0.334 -0.274,0 -0.487,0.213 -0.487,0.486 0,0.061 0.031,0.183 0.061,0.244 L -0.456,1.186 C -0.396,1.368 -0.244,1.52 0,1.52 0.242,1.52 0.425,1.368 0.486,1.186 l 7.842,-19.879 c 0.03,-0.061 0.061,-0.183 0.061,-0.244 0,-0.273 -0.213,-0.486 -0.517,-0.486 -0.243,0 -0.395,0.152 -0.486,0.365 l -2.492,6.383 -9.789,0 z"
         style="fill:#000000;fill-opacity:1;fill-rule:nonzero;stroke:#4d4d4d;stroke-width:0.8;stroke-miterlimit:4;stroke-dasharray:none"
         id="path6307"
         inkscape:connector-curvature="0" />
    </g>
    <g
       id="g6309"
       transform="matrix(1.25,0,0,-1.25,343.9849,293.24996)"
       style="stroke-width:0.8;stroke-miterlimit:4;stroke-dasharray:none;stroke:#4d4d4d;fill:#000000">
      <path
         d="m 0,0 c -0.243,0 -0.425,0.182 -0.425,0.425 0,0.243 0.182,0.426 0.425,0.426 l 13.557,0 c 0.243,0 0.425,-0.183 0.425,-0.426 C 13.982,0.182 13.8,0 13.557,0 l -6.292,0 0,-19.362 c 0,-0.274 -0.213,-0.487 -0.487,-0.487 -0.273,0 -0.486,0.213 -0.486,0.487 L 6.292,0 0,0 Z"
         style="fill:#000000;fill-opacity:1;fill-rule:nonzero;stroke:#4d4d4d;stroke-width:0.8;stroke-miterlimit:4;stroke-dasharray:none"
         id="path6311"
         inkscape:connector-curvature="0" />
    </g>
    <g
       id="g6313"
       transform="matrix(1.25,0,0,-1.25,366.63252,317.45284)"
       style="stroke-width:0.8;stroke-miterlimit:4;stroke-dasharray:none;stroke:#4d4d4d;fill:#000000">
      <path
         d="m 0,0 c 0,-0.273 -0.213,-0.486 -0.486,-0.486 -0.274,0 -0.487,0.213 -0.487,0.486 l 0,19.97 c 0,0.273 0.213,0.486 0.487,0.486 C -0.213,20.456 0,20.243 0,19.97 L 0,0 Z"
         style="fill:#000000;fill-opacity:1;fill-rule:nonzero;stroke:#4d4d4d;stroke-width:0.8;stroke-miterlimit:4;stroke-dasharray:none"
         id="path6315"
         inkscape:connector-curvature="0" />
    </g>
    <g
       id="g6317"
       transform="matrix(1.25,0,0,-1.25,372.90202,310.23359)"
       style="stroke-width:0.8;stroke-miterlimit:4;stroke-dasharray:none;stroke:#4d4d4d;fill:#000000">
      <path
         d="m 0,0 0,14.194 c 0,0.274 0.213,0.487 0.486,0.487 0.274,0 0.487,-0.213 0.487,-0.487 L 0.973,0 c 0,-2.827 1.064,-5.593 5.988,-5.593 4.924,0 5.957,2.766 5.957,5.593 l 0,14.194 c 0,0.274 0.213,0.487 0.486,0.487 0.274,0 0.487,-0.213 0.487,-0.487 L 13.891,0 c 0,-3.223 -1.337,-6.444 -6.93,-6.444 C 1.368,-6.444 0,-3.223 0,0"
         style="fill:#000000;fill-opacity:1;fill-rule:nonzero;stroke:#4d4d4d;stroke-width:0.8;stroke-miterlimit:4;stroke-dasharray:none"
         id="path6319"
         inkscape:connector-curvature="0" />
    </g>
    <g
       id="g6321"
       transform="matrix(1.25,0,0,-1.25,58.389771,233.29021)">
      <path
         d="m 0,0 -5.311,0 0,20.313 5.461,0 c 0.676,0 1.204,0.522 1.204,1.188 0,0.672 -0.528,1.195 -1.204,1.195 l -13.519,0 c -0.68,0 -1.209,-0.523 -1.209,-1.195 0,-0.666 0.529,-1.188 1.209,-1.188 l 5.305,0 0,-20.313 -5.452,0 c -0.679,0 -1.207,-0.513 -1.207,-1.187 0,-0.667 0.528,-1.197 1.207,-1.197 l 13.516,0 c 0.682,0 1.205,0.53 1.205,1.197 C 1.205,-0.513 0.682,0 0,0"
         style="fill:#181817;fill-opacity:1;fill-rule:nonzero;stroke:none"
         id="path6323"
         inkscape:connector-curvature="0" />
    </g>
    <g
       id="g6325"
       transform="matrix(1.25,0,0,-1.25,62.293521,294.63422)">
      <path
         d="M 0,0 C 0.42,0.446 0.955,0.459 1.371,0.244 1.949,-0.049 2.176,-0.737 1.887,-1.328 1.816,-1.457 1.707,-1.598 1.545,-1.766 l -21.08,-21.113 c -0.416,-0.441 -0.949,-0.457 -1.367,-0.242 -0.577,0.293 -0.805,0.973 -0.514,1.567 0.064,0.125 0.178,0.271 0.336,0.442 L 0,0 Z"
         style="fill:#bb0036;fill-opacity:1;fill-rule:nonzero;stroke:none"
         id="path6327"
         inkscape:connector-curvature="0" />
    </g>
    <g
       id="g6329"
       transform="matrix(1.25,0,0,-1.25,60.281901,142.95146)">
      <path
         d="m 0,0 0,5.377 -6.275,0 c -0.641,0 -1.168,0.516 -1.168,1.141 0,0.63 0.527,1.154 1.168,1.154 l 7.589,0 c 0.608,0 1.17,-0.524 1.17,-1.154 l 0,-6.479 c 0,-0.443 -0.152,-0.818 -0.49,-1.226 -1.805,-2.071 -4.435,-4.077 -8.98,-4.077 -7.295,0 -11.733,3.854 -11.733,12.971 0,8.781 4.438,13.004 11.733,13.004 3.568,0 6.685,-1.516 8.451,-3.922 0.191,-0.26 0.267,-0.519 0.267,-0.781 0,-0.666 -0.529,-1.186 -1.205,-1.186 -0.338,0 -0.677,0.112 -0.978,0.481 -1.278,1.74 -3.68,3.113 -6.535,3.113 -5.789,0 -9.1,-3.447 -9.1,-10.709 0,-7.707 3.311,-10.67 9.1,-10.67 3.49,0 5.742,1.445 6.986,2.963"
         style="fill:#181817;fill-opacity:1;fill-rule:nonzero;stroke:none"
         id="path6331"
         inkscape:connector-curvature="0" />
    </g>
    <g
       id="g6333"
       transform="matrix(1.25,0,0,-1.25,38.672901,177.05859)">
      <path
         d="m 0,0 c 0,-7.225 3.342,-10.676 9.092,-10.676 5.75,0 9.097,3.451 9.097,10.676 0,7.26 -3.347,10.707 -9.097,10.707 C 3.342,10.707 0,7.26 0,0 m -2.635,0 c 0,8.785 4.434,13.004 11.727,13.004 C 16.387,13.004 20.82,8.785 20.82,0 20.82,-8.71 16.387,-12.971 9.092,-12.971 1.799,-12.971 -2.635,-8.71 -2.635,0"
         style="fill:#181817;fill-opacity:1;fill-rule:nonzero;stroke:none"
         id="path6335"
         inkscape:connector-curvature="0" />
    </g>
    <g
       id="g6337"
       transform="matrix(1.25,0,0,-1.25,43.812151,277.23797)">
      <path
         d="m 0,0 6.203,0 c 3.42,0 5.151,1.817 5.151,4.815 0,3.041 -1.954,4.782 -5.151,4.782 L 0,9.597 0,0 Z m 0,11.747 5.07,0 c 3.352,0 5.118,1.703 5.118,4.297 0,2.666 -1.616,4.295 -5.118,4.295 l -5.07,0 0,-8.592 z M -1.279,-2.296 c -0.67,0 -1.278,0.557 -1.278,1.26 l 0,22.416 c 0,0.697 0.608,1.26 1.278,1.26 l 6.394,0 c 5.295,0 7.668,-2.596 7.668,-6.596 0,-2.443 -1.543,-4.445 -3.646,-5.041 2.703,-0.666 4.81,-2.592 4.81,-6.188 0,-4.294 -2.748,-7.111 -7.709,-7.111 l -7.517,0 z"
         style="fill:#181817;fill-opacity:1;fill-rule:nonzero;stroke:none"
         id="path6339"
         inkscape:connector-curvature="0" />
    </g>
    <g
       id="g6341"
       transform="matrix(1.25,0,0,-1.25,26.002021,63.77184)">
      <path
         d="m 0,0 c 0,-3.85 1.145,-7.432 3.084,-10.441 0.703,-1.094 1.527,-2.094 2.418,-3.006 l 0,41.687 L 0,33.744 0,0 Z"
         style="fill:#bb0036;fill-opacity:1;fill-rule:nonzero;stroke:none"
         id="path6343"
         inkscape:connector-curvature="0" />
    </g>
    <g
       id="g6345"
       transform="matrix(1.25,0,0,-1.25,32.879521,15.37096)">
      <path
         d="M 0,0 -5.416,0 0,-5.414 0,0 Z"
         style="fill:#bb0036;fill-opacity:1;fill-rule:nonzero;stroke:none"
         id="path6347"
         inkscape:connector-curvature="0" />
    </g>
    <g
       id="g6349"
       transform="matrix(1.25,0,0,-1.25,46.634401,15.36609)">
      <path
         d="m 0,0 -5.504,0 0,-10.92 L 0,-16.422 0,0 Z"
         style="fill:#bb0036;fill-opacity:1;fill-rule:nonzero;stroke:none"
         id="path6351"
         inkscape:connector-curvature="0" />
    </g>
    <g
       id="g6353"
       transform="matrix(1.25,0,0,-1.25,39.754521,85.52721)">
      <path
         d="m 0,0 c 1.709,-0.824 3.564,-1.383 5.504,-1.666 l 0,36.305 L 0,40.139 0,0 Z"
         style="fill:#bb0036;fill-opacity:1;fill-rule:nonzero;stroke:none"
         id="path6355"
         inkscape:connector-curvature="0" />
    </g>
    <g
       id="g6357"
       transform="matrix(1.25,0,0,-1.25,60.394151,15.36609)">
      <path
         d="m 0,0 -5.506,0 0,-21.924 L 0,-27.43 0,0 Z"
         style="fill:#bb0036;fill-opacity:1;fill-rule:nonzero;stroke:none"
         id="path6359"
         inkscape:connector-curvature="0" />
    </g>
    <g
       id="g6361"
       transform="matrix(1.25,0,0,-1.25,53.511771,87.60971)">
      <path
         d="m 0,0 c 1.947,0.283 3.803,0.842 5.506,1.66 l 0,23.637 L 0,30.805 0,0 Z"
         style="fill:#bb0036;fill-opacity:1;fill-rule:nonzero;stroke:none"
         id="path6363"
         inkscape:connector-curvature="0" />
    </g>
    <g
       id="g6365"
       transform="matrix(1.25,0,0,-1.25,74.161271,15.36609)">
      <path
         d="m 0,0 -5.512,0 0,-32.936 L 0,-38.436 0,0 Z"
         style="fill:#bb0036;fill-opacity:1;fill-rule:nonzero;stroke:none"
         id="path6367"
         inkscape:connector-curvature="0" />
    </g>
    <g
       id="g6369"
       transform="matrix(1.25,0,0,-1.25,67.271651,80.60771)">
      <path
         d="m 0,0 c 0.902,0.926 1.725,1.934 2.428,3.027 1.205,1.86 2.049,3.959 2.556,6.182 L 0,14.193 0,0 Z"
         style="fill:#bb0036;fill-opacity:1;fill-rule:nonzero;stroke:none"
         id="path6371"
         inkscape:connector-curvature="0" />
    </g>
  </g>
</svg>
