<?xml version="1.0" encoding="ISO-8859-1" standalone="no"?>
<!-- Created with Inkscape (http://www.inkscape.org/) -->

<svg
   xmlns:dc="http://purl.org/dc/elements/1.1/"
   xmlns:cc="http://creativecommons.org/ns#"
   xmlns:rdf="http://www.w3.org/1999/02/22-rdf-syntax-ns#"
   xmlns:svg="http://www.w3.org/2000/svg"
   xmlns="http://www.w3.org/2000/svg"
   xmlns:sodipodi="http://sodipodi.sourceforge.net/DTD/sodipodi-0.dtd"
   xmlns:inkscape="http://www.inkscape.org/namespaces/inkscape"
   width="72.635094mm"
   height="41.739681mm"
   viewBox="0 0 257.36844 147.89651"
   id="logo-iaqse"
   version="1.1"
   inkscape:version="0.91 r13725"
   sodipodi:docname="logo-iaqse.svg">
  <defs
     id="defs4" />
  <sodipodi:namedview
     id="base"
     pagecolor="#ffffff"
     bordercolor="#666666"
     borderopacity="1.0"
     inkscape:pageopacity="0.0"
     inkscape:pageshadow="2"
     inkscape:zoom="2.4241301"
     inkscape:cx="400.04494"
     inkscape:cy="-81.202727"
     inkscape:document-units="px"
     inkscape:current-layer="layer1"
     showgrid="false"
     fit-margin-top="0"
     fit-margin-left="0"
     fit-margin-right="0"
     fit-margin-bottom="0"
     inkscape:window-width="2560"
     inkscape:window-height="1309"
     inkscape:window-x="51"
     inkscape:window-y="0"
     inkscape:window-maximized="0" />
  <metadata
     id="metadata7">
    <rdf:RDF>
      <cc:Work
         rdf:about="">
        <dc:format>image/svg+xml</dc:format>
        <dc:type
           rdf:resource="http://purl.org/dc/dcmitype/StillImage" />
        <dc:title></dc:title>
      </cc:Work>
    </rdf:RDF>
  </metadata>
  <g
     inkscape:label="Capa 1"
     inkscape:groupmode="layer"
     id="layer1"
     transform="translate(-5.3295871,-2.806229)">
    <g
       id="g3443"
       transform="translate(-363.56637,-27.547025)">
      <path
         style="fill:#45698e"
         d="m 468.78596,176.98213 c -4.91855,-1.75815 -10.13892,-5.90899 -13.46161,-10.70364 l -2.77984,-4.01131 -3.08417,0.79304 c -1.6963,0.43616 -8.25918,0.78572 -14.58418,0.77678 -10.13688,-0.0143 -12.24424,-0.32788 -17.77879,-2.64538 -14.38931,-6.02529 -25.7292,-15.44647 -37.28837,-30.97919 -11.66888,-15.68012 -13.097,-22.16739 -8.42734,-38.281392 6.90622,-23.831934 18.68958,-39.118831 35.25148,-45.732762 5.04389,-2.014259 7.38646,-2.283511 19.24302,-2.211768 7.425,0.04493 14.82593,0.509265 16.44652,1.03186 l 2.94652,0.950174 -20.89949,8.923744 c -22.67954,9.6838 -29.9053,13.798642 -35.85622,20.418976 -5.60741,6.238179 -7.91393,12.142393 -8.42766,21.573052 -0.75372,13.836206 4.07714,28.424376 12.38389,37.396646 11.43781,12.3542 35.53397,20.59678 51.107,17.48218 l 2.95055,-0.59011 -1.92047,-5.93015 -1.92047,-5.93014 -3.43988,3.02026 c -3.48956,3.06387 -8.02235,3.96819 -9.99623,1.9943 -1.14333,-1.14332 16.10872,-19.41174 17.51247,-18.54418 0.43934,0.27153 3.62906,4.78589 7.08827,10.03191 3.4592,5.24602 6.79851,9.53822 7.42068,9.53822 2.39847,0 12.45544,-7.67906 20.18714,-15.41399 20.41129,-20.41986 19.18928,-39.182557 -3.94598,-60.586006 -4.45876,-4.125 -14.15688,-13.418112 -21.55138,-20.651359 l -13.44454,-13.151359 1.70269,-2.598641 c 0.93648,-1.429253 2.45365,-2.598641 3.37148,-2.598641 2.32608,0 13.97139,7.062531 21.49435,13.03568 21.96581,17.440623 34.59725,44.677613 33.61245,72.478056 -0.31183,8.80304 -0.69315,10.59121 -3.1539,14.79016 -3.05508,5.2131 -12.85155,13.52863 -24.44107,20.7463 -3.92981,2.44739 -7.16347,4.92212 -7.18591,5.49941 -0.0688,1.76922 9.22044,12.66653 13.72817,16.10469 l 4.25468,3.24516 -3.76183,1.04469 c -4.90673,1.36264 -8.92329,1.2678 -13.35203,-0.31527 z m -44.4098,-60.59475 c -5.01762,-2.41089 -7.67103,-4.72375 -10.93176,-9.52871 -6.19433,-9.12785 -0.68786,-16.684293 19.04746,-26.138526 5.01364,-2.401789 9.6411,-4.36689 10.28325,-4.36689 2.12284,0 10.66414,4.789443 13.85205,7.767397 3.66455,3.423205 4.73774,6.813884 3.77721,11.933928 -0.5223,2.784115 -2.48187,5.478141 -7.99416,10.990431 -10.94955,10.94955 -19.06236,13.65315 -28.03405,9.34237 z"
         id="path3449"
         inkscape:connector-curvature="0" />
      <path
         style="fill:#cb3301"
         d="m 467.29844,175.93482 c -4.09514,-1.78317 -9.85348,-6.92517 -12.43759,-11.10635 l -2.092,-3.38492 -2.69634,1.08165 c -4.03076,1.61695 -21.85666,1.56471 -27.69635,-0.0812 -10.87254,-3.06435 -23.13658,-10.79183 -32.13326,-20.24692 -6.09508,-6.40566 -15.20367,-18.60391 -18.16812,-24.3308 -3.85261,-7.44268 -3.55954,-16.79118 0.94089,-30.013066 8.00327,-23.512987 19.79813,-36.936594 37.07607,-42.195905 5.66876,-1.72554 24.27181,-2.053905 30.75552,-0.54287 l 3.4711,0.808944 -20.95578,8.947721 C 395.10582,66.93625 388.187,71.778311 382.78614,83.268145 c -4.86669,10.353434 -4.78195,21.125685 0.27964,35.549805 5.58017,15.90193 16.53974,25.42841 36.16571,31.43663 7.0094,2.14583 23.73412,2.96419 26.3689,1.29027 0.94871,-0.60274 0.84649,-2.00588 -0.45421,-6.23469 -0.92313,-3.0013 -1.76968,-5.60255 -1.88121,-5.78056 -0.11153,-0.17801 -2.11215,1.05949 -4.44583,2.75 -4.43244,3.21084 -7.74682,3.86981 -9.69003,1.9266 -0.86272,-0.86273 -0.20639,-1.82845 2.64792,-3.8961 2.08723,-1.51198 5.5509,-4.93331 7.69704,-7.60295 4.015,-4.99434 5.3877,-6.31204 6.60322,-6.33858 0.38562,-0.008 3.72836,4.37218 7.42831,9.73468 3.69995,5.3625 6.86655,9.93211 7.03689,10.15468 0.54576,0.71313 13.65474,-8.45395 19.04591,-13.31877 5.84598,-5.27521 13.39454,-16.11542 15.2635,-21.91934 2.05102,-6.36928 0.96804,-17.22005 -2.41198,-24.166566 -3.13577,-6.444516 -8.88134,-12.525342 -34.3211,-36.323726 -14.88031,-13.920232 -16.7027,-16.789333 -12.19617,-19.201156 1.68717,-0.902947 3.1563,-0.474614 8.36731,2.43955 26.24742,14.678395 41.85566,36.643179 47.02031,66.169609 3.46027,19.782489 1.389,28.777069 -8.74528,37.976659 -6.16349,5.59503 -22.97583,17.43906 -24.75436,17.43906 -0.51396,0 -0.93447,0.40541 -0.93447,0.90092 0,1.88308 9.11814,12.92358 13.47982,16.32173 3.52315,2.74486 4.19339,3.68877 2.95634,4.16347 -2.82108,1.08255 -12.83552,0.57942 -16.01388,-0.80455 z m -42.92228,-59.54744 c -5.01762,-2.41089 -7.67103,-4.72375 -10.93176,-9.52871 -6.19433,-9.12785 -0.68786,-16.684293 19.04746,-26.138526 5.01364,-2.401789 9.6411,-4.36689 10.28325,-4.36689 2.12284,0 10.66414,4.789443 13.85205,7.767397 3.66455,3.423205 4.73774,6.813884 3.77721,11.933928 -0.5223,2.784115 -2.48187,5.478141 -7.99416,10.990431 -10.94955,10.94955 -19.06236,13.65315 -28.03405,9.34237 z"
         id="path3447"
         inkscape:connector-curvature="0" />
      <path
         style="fill:#003265"
         d="m 467.29844,175.93482 c -4.09514,-1.78317 -9.85348,-6.92517 -12.43759,-11.10635 l -2.092,-3.38492 -2.69634,1.08165 c -4.03076,1.61695 -21.85666,1.56471 -27.69635,-0.0812 -10.87254,-3.06435 -23.13658,-10.79183 -32.13326,-20.24692 -6.09508,-6.40566 -15.20367,-18.60391 -18.16812,-24.3308 -3.85261,-7.44268 -3.55954,-16.79118 0.94089,-30.013066 8.00327,-23.512987 19.79813,-36.936594 37.07607,-42.195905 5.66876,-1.72554 24.27181,-2.053905 30.75552,-0.54287 l 3.4711,0.808944 -20.95578,8.947721 C 395.10582,66.93625 388.187,71.778311 382.78614,83.268145 c -4.86669,10.353434 -4.78195,21.125685 0.27964,35.549805 5.58017,15.90193 16.53974,25.42841 36.16571,31.43663 7.0094,2.14583 23.73412,2.96419 26.3689,1.29027 0.94871,-0.60274 0.84649,-2.00588 -0.45421,-6.23469 -0.92313,-3.0013 -1.76968,-5.60255 -1.88121,-5.78056 -0.11153,-0.17801 -2.11215,1.05949 -4.44583,2.75 -4.43244,3.21084 -7.74682,3.86981 -9.69003,1.9266 -0.86272,-0.86273 -0.20639,-1.82845 2.64792,-3.8961 2.08723,-1.51198 5.5509,-4.93331 7.69704,-7.60295 4.015,-4.99434 5.3877,-6.31204 6.60322,-6.33858 0.38562,-0.008 3.72836,4.37218 7.42831,9.73468 3.69995,5.3625 6.86655,9.93211 7.03689,10.15468 0.54576,0.71313 13.65474,-8.45395 19.04591,-13.31877 5.84598,-5.27521 13.39454,-16.11542 15.2635,-21.91934 2.05102,-6.36928 0.96804,-17.22005 -2.41198,-24.166566 -3.13577,-6.444516 -8.88134,-12.525342 -34.3211,-36.323726 -14.88031,-13.920232 -16.7027,-16.789333 -12.19617,-19.201156 1.68717,-0.902947 3.1563,-0.474614 8.36731,2.43955 26.24742,14.678395 41.85566,36.643179 47.02031,66.169609 3.46027,19.782489 1.389,28.777069 -8.74528,37.976659 -6.16349,5.59503 -22.97583,17.43906 -24.75436,17.43906 -0.51396,0 -0.93447,0.40541 -0.93447,0.90092 0,1.88308 9.11814,12.92358 13.47982,16.32173 3.52315,2.74486 4.19339,3.68877 2.95634,4.16347 -2.82108,1.08255 -12.83552,0.57942 -16.01388,-0.80455 z"
         id="path3445"
         inkscape:connector-curvature="0" />
    </g>
    <flowRoot
       xml:space="preserve"
       id="flowRoot3550"
       style="font-style:normal;font-weight:normal;font-size:40px;line-height:125%;font-family:sans-serif;text-align:end;letter-spacing:0px;word-spacing:0px;text-anchor:end;fill:#000000;fill-opacity:1;stroke:none;stroke-width:1px;stroke-linecap:butt;stroke-linejoin:miter;stroke-opacity:1"><flowRegion
         id="flowRegion3552"><rect
           id="rect3554"
           width="152.26482"
           height="140.01363"
           x="197.18587"
           y="196.5289" /></flowRegion><flowPara
         id="flowPara3556"></flowPara></flowRoot>    <text
       xml:space="preserve"
       style="font-style:normal;font-weight:normal;font-size:40px;line-height:137.99999952%;font-family:sans-serif;text-align:start;letter-spacing:0.07px;word-spacing:0px;text-anchor:start;fill:#000000;fill-opacity:1;stroke:none;stroke-width:1px;stroke-linecap:butt;stroke-linejoin:miter;stroke-opacity:1"
       x="147.84799"
       y="26.551771"
       id="text3558"
       sodipodi:linespacing="138%"><tspan
         sodipodi:role="line"
         id="tspan3560"
         x="147.84799"
         y="26.551771"
         style="font-style:normal;font-variant:normal;font-weight:bold;font-stretch:normal;font-size:21.25px;font-family:Verdana;-inkscape-font-specification:'Verdana Bold';text-align:start;letter-spacing:0.07px;text-anchor:start"><tspan
   style="font-style:normal;font-variant:normal;font-weight:bold;font-stretch:normal;font-size:21.25px;font-family:Verdana;-inkscape-font-specification:'Verdana Bold';text-align:start;letter-spacing:0.07px;text-anchor:start;fill:#ff0000"
   id="tspan3562">I</tspan>ns<tspan
   style="line-height:137.99999952%;letter-spacing:0.04px"
   id="tspan3699">titut</tspan></tspan><tspan
         sodipodi:role="line"
         x="147.84799"
         y="55.87677"
         style="font-style:normal;font-variant:normal;font-weight:bold;font-stretch:normal;font-size:21.25px;line-height:137.99999952%;font-family:Verdana;-inkscape-font-specification:'Verdana Bold';text-align:start;letter-spacing:0.04px;text-anchor:start"
         id="tspan3641"><tspan
   style="font-style:normal;font-variant:normal;font-weight:bold;font-stretch:normal;font-size:21.25px;line-height:137.99999952%;font-family:Verdana;-inkscape-font-specification:'Verdana Bold';letter-spacing:0.04px;fill:#ff0000"
   id="tspan3649">A</tspan>valuació</tspan><tspan
         sodipodi:role="line"
         x="147.84799"
         y="85.201775"
         style="font-style:normal;font-variant:normal;font-weight:bold;font-stretch:normal;font-size:21.25px;line-height:137.99999952%;font-family:Verdana;-inkscape-font-specification:'Verdana Bold';text-align:start;letter-spacing:0.04px;text-anchor:start"
         id="tspan3643"><tspan
   style="font-style:normal;font-variant:normal;font-weight:bold;font-stretch:normal;font-size:21.25px;line-height:137.99999952%;font-family:Verdana;-inkscape-font-specification:'Verdana Bold';letter-spacing:0.04px;fill:#ff0000"
   id="tspan3651">Q</tspan>ualitat</tspan><tspan
         sodipodi:role="line"
         x="147.84799"
         y="114.52677"
         style="font-style:normal;font-variant:normal;font-weight:bold;font-stretch:normal;font-size:21.25px;line-height:137.99999952%;font-family:Verdana;-inkscape-font-specification:'Verdana Bold';text-align:start;letter-spacing:0.04px;text-anchor:start"
         id="tspan3645"><tspan
   style="font-style:normal;font-variant:normal;font-weight:bold;font-stretch:normal;font-size:21.25px;line-height:137.99999952%;font-family:Verdana;-inkscape-font-specification:'Verdana Bold';letter-spacing:0.04px;fill:#ff0000"
   id="tspan3653">S</tspan>istema</tspan><tspan
         sodipodi:role="line"
         x="147.84799"
         y="143.85178"
         style="font-style:normal;font-variant:normal;font-weight:bold;font-stretch:normal;font-size:21.25px;font-family:Verdana;-inkscape-font-specification:'Verdana Bold';text-align:start;letter-spacing:0.07px;text-anchor:start"
         id="tspan3647"><tspan
   style="font-style:normal;font-variant:normal;font-weight:bold;font-stretch:normal;font-size:21.25px;line-height:137.99999952%;font-family:Verdana;-inkscape-font-specification:'Verdana Bold';letter-spacing:0.04px;fill:#ff0000"
   id="tspan3655">E</tspan><tspan
   style="line-height:137.99999952%;letter-spacing:0.04px"
   id="tspan3701">duc</tspan>atiu</tspan></text>
  </g>
</svg>
