<?xml version="1.0" encoding="UTF-8" standalone="no"?>
<svg
   xmlns:dc="http://purl.org/dc/elements/1.1/"
   xmlns:cc="http://creativecommons.org/ns#"
   xmlns:rdf="http://www.w3.org/1999/02/22-rdf-syntax-ns#"
   xmlns:svg="http://www.w3.org/2000/svg"
   xmlns="http://www.w3.org/2000/svg"
   version="1.1"
   id="svg2"
   viewBox="0 0 133.96758 147.89651"
   height="41.739681mm"
   width="37.808628mm">
  <defs
     id="defs4" />
  <metadata
     id="metadata7">
    <rdf:RDF>
      <cc:Work
         rdf:about="">
        <dc:format>image/svg+xml</dc:format>
        <dc:type
           rdf:resource="http://purl.org/dc/dcmitype/StillImage" />
        <dc:title></dc:title>
      </cc:Work>
    </rdf:RDF>
  </metadata>
  <g
     transform="translate(-5.3295871,-2.806229)"
     id="layer1">
    <path
       style="fill:#45698e"
       d="m 105.21959,149.43511 c -4.91855,-1.75815 -10.13892,-5.90899 -13.46161,-10.70364 l -2.77984,-4.01132 -3.08417,0.79304 c -1.6963,0.43616 -8.25918,0.78572 -14.58418,0.77678 C 61.17291,136.27567 59.06555,135.96209 53.531,133.64459 39.14169,127.6193 27.8018,118.19812 16.24263,102.66541 4.57375,86.985285 3.14563,80.498015 7.81529,64.384013 14.72151,40.552079 26.50487,25.265182 43.06677,18.651251 c 5.04389,-2.014259 7.38646,-2.283511 19.24302,-2.211768 7.425,0.04493 14.82593,0.509265 16.44652,1.03186 l 2.94652,0.950174 -20.89949,8.923744 c -22.67954,9.6838 -29.9053,13.798642 -35.85622,20.418976 -5.60741,6.238179 -7.91393,12.142393 -8.42766,21.573052 -0.75372,13.836206 4.07714,28.424376 12.38389,37.396651 11.43781,12.3542 35.53397,20.59678 51.107,17.48218 l 2.95055,-0.59011 -1.92047,-5.93015 -1.92047,-5.93014 -3.43988,3.02026 c -3.48956,3.06387 -8.02235,3.96819 -9.99623,1.9943 -1.14333,-1.14332 16.10872,-19.411745 17.51247,-18.544185 0.43934,0.27153 3.62906,4.785895 7.08827,10.031915 3.4592,5.24602 6.79851,9.53822 7.42068,9.53822 2.39847,0 12.45544,-7.67906 20.18714,-15.41399 C 138.3037,81.972375 137.08169,63.209678 113.94643,41.806229 109.48767,37.681229 99.78955,28.388117 92.39505,21.15487 L 78.95051,8.003511 80.6532,5.40487 c 0.93648,-1.429253 2.45365,-2.598641 3.37148,-2.598641 2.32608,0 13.97139,7.062531 21.49435,13.03568 21.96581,17.440623 34.59725,44.677613 33.61245,72.478056 -0.31183,8.80304 -0.69315,10.59121 -3.1539,14.790155 -3.05508,5.2131 -12.85155,13.52863 -24.44107,20.7463 -3.92981,2.4474 -7.16347,4.92212 -7.18591,5.49942 -0.0688,1.76921 9.22044,12.66652 13.72817,16.10469 l 4.25468,3.24516 -3.76183,1.04469 c -4.90673,1.36264 -8.92329,1.2678 -13.35203,-0.31527 z M 60.80979,88.840355 c -5.01762,-2.41089 -7.67103,-4.72375 -10.93176,-9.52871 -6.19433,-9.12785 -0.68786,-16.684293 19.04746,-26.138526 5.01364,-2.401789 9.6411,-4.36689 10.28325,-4.36689 2.12284,0 10.66414,4.789443 13.85205,7.767397 3.66455,3.423205 4.73774,6.813884 3.77721,11.933928 -0.5223,2.784115 -2.48187,5.478141 -7.99416,10.990431 -10.94955,10.94955 -19.06236,13.65315 -28.03405,9.34237 z"
       id="path3449" />
    <path
       style="fill:#cb3301"
       d="m 103.73207,148.38779 c -4.09514,-1.78317 -9.85348,-6.92517 -12.43759,-11.10634 l -2.092,-3.38492 -2.69634,1.08165 c -4.03076,1.61695 -21.85666,1.5647 -27.69635,-0.0812 C 47.93725,131.83263 35.67321,124.10515 26.67653,114.65006 20.58145,108.2444 11.47286,96.046145 8.50841,90.319255 4.6558,82.876575 4.94887,73.528075 9.4493,60.306189 17.45257,36.793202 29.24743,23.369595 46.52537,18.110284 c 5.66876,-1.72554 24.27181,-2.053905 30.75552,-0.54287 l 3.4711,0.808944 -20.95578,8.947721 C 31.53945,39.389225 24.62063,44.231286 19.21977,55.72112 c -4.86669,10.353434 -4.78195,21.125685 0.27964,35.549805 5.58017,15.901925 16.53974,25.428405 36.16571,31.436635 7.0094,2.14582 23.73412,2.96419 26.3689,1.29026 0.94871,-0.60274 0.84649,-2.00587 -0.45421,-6.23469 -0.92313,-3.00129 -1.76968,-5.60255 -1.88121,-5.78056 -0.11153,-0.17801 -2.11215,1.05949 -4.44583,2.75 -4.43244,3.21084 -7.74682,3.86981 -9.69003,1.9266 -0.86272,-0.86273 -0.20639,-1.82845 2.64792,-3.89609 2.08723,-1.51198 5.5509,-4.93332 7.69704,-7.60295 4.015,-4.99434 5.3877,-6.312045 6.60322,-6.338585 0.38562,-0.008 3.72836,4.372175 7.42831,9.734675 3.69995,5.36251 6.86655,9.93211 7.03689,10.15469 0.54576,0.71313 13.65474,-8.45395 19.04591,-13.31877 5.84598,-5.27521 13.39454,-16.115425 15.2635,-21.919345 2.05102,-6.36928 0.96804,-17.22005 -2.41198,-24.166566 C 125.73778,52.861713 119.99221,46.780887 94.55245,22.982503 79.67214,9.062271 77.84975,6.19317 82.35628,3.781347 c 1.68717,-0.902947 3.1563,-0.474614 8.36731,2.43955 26.24742,14.678395 41.85566,36.643179 47.02031,66.169609 3.46027,19.782489 1.389,28.777074 -8.74528,37.976664 -6.16349,5.59503 -22.97583,17.43906 -24.75436,17.43906 -0.51396,0 -0.93447,0.40541 -0.93447,0.90092 0,1.88308 9.11814,12.92358 13.47982,16.32173 3.52315,2.74486 4.19339,3.68877 2.95634,4.16347 -2.82108,1.08255 -12.83552,0.57942 -16.01388,-0.80455 z M 60.80979,88.840355 c -5.01762,-2.41089 -7.67103,-4.72375 -10.93176,-9.52871 -6.19433,-9.12785 -0.68786,-16.684293 19.04746,-26.138526 5.01364,-2.401789 9.6411,-4.36689 10.28325,-4.36689 2.12284,0 10.66414,4.789443 13.85205,7.767397 3.66455,3.423205 4.73774,6.813884 3.77721,11.933928 -0.5223,2.784115 -2.48187,5.478141 -7.99416,10.990431 -10.94955,10.94955 -19.06236,13.65315 -28.03405,9.34237 z"
       id="path3447" />
    <path
       style="fill:#ffffff;stroke:#0000ff"
       d="m 103.73207,148.38779 c -4.09514,-1.78317 -9.85348,-6.92517 -12.43759,-11.10634 l -2.092,-3.38492 -2.69634,1.08165 c -4.03076,1.61695 -21.85666,1.5647 -27.69635,-0.0812 C 47.93725,131.83263 35.67321,124.10515 26.67653,114.65006 20.58145,108.2444 11.47286,96.046145 8.50841,90.319255 4.6558,82.876575 4.94887,73.528075 9.4493,60.306189 17.45257,36.793202 29.24743,23.369595 46.52537,18.110284 c 5.66876,-1.72554 24.27181,-2.053905 30.75552,-0.54287 l 3.4711,0.808944 -20.95578,8.947721 C 31.53945,39.389225 24.62063,44.231286 19.21977,55.72112 c -4.86669,10.353434 -4.78195,21.125685 0.27964,35.549805 5.58017,15.901925 16.53974,25.428405 36.16571,31.436635 7.0094,2.14582 23.73412,2.96419 26.3689,1.29026 0.94871,-0.60274 0.84649,-2.00587 -0.45421,-6.23469 -0.92313,-3.00129 -1.76968,-5.60255 -1.88121,-5.78056 -0.11153,-0.17801 -2.11215,1.05949 -4.44583,2.75 -4.43244,3.21084 -7.74682,3.86981 -9.69003,1.9266 -0.86272,-0.86273 -0.20639,-1.82845 2.64792,-3.89609 2.08723,-1.51198 5.5509,-4.93332 7.69704,-7.60295 4.015,-4.99434 5.3877,-6.312045 6.60322,-6.338585 0.38562,-0.008 3.72836,4.372175 7.42831,9.734675 3.69995,5.36251 6.86655,9.93211 7.03689,10.15469 0.54576,0.71313 13.65474,-8.45395 19.04591,-13.31877 5.84598,-5.27521 13.39454,-16.115425 15.2635,-21.919345 2.05102,-6.36928 0.96804,-17.22005 -2.41198,-24.166566 C 125.73778,52.861713 119.99221,46.780887 94.55245,22.982503 79.67214,9.062271 77.84975,6.19317 82.35628,3.781347 c 1.68717,-0.902947 3.1563,-0.474614 8.36731,2.43955 26.24742,14.678395 41.85566,36.643179 47.02031,66.169609 3.46027,19.782489 1.389,28.777074 -8.74528,37.976664 -6.16349,5.59503 -22.97583,17.43906 -24.75436,17.43906 -0.51396,0 -0.93447,0.40541 -0.93447,0.90092 0,1.88308 9.11814,12.92358 13.47982,16.32173 3.52315,2.74486 4.19339,3.68877 2.95634,4.16347 -2.82108,1.08255 -12.83552,0.57942 -16.01388,-0.80455 z"
       id="path3445" />
    <flowRoot
       style="font-style:normal;font-weight:normal;font-size:40px;line-height:125%;font-family:sans-serif;text-align:end;letter-spacing:0px;word-spacing:0px;text-anchor:end;fill:#000000;fill-opacity:1;stroke:none;stroke-width:1px;stroke-linecap:butt;stroke-linejoin:miter;stroke-opacity:1"
       id="flowRoot3550"
       xml:space="preserve"><flowRegion
         id="flowRegion3552"><rect
           y="196.5289"
           x="197.18587"
           height="140.01363"
           width="152.26482"
           id="rect3554" /></flowRegion><flowPara
         id="flowPara3556"></flowPara></flowRoot>  </g>
</svg>
